<?xml version="1.0" encoding="utf-8"?>
<!-- Generator: Adobe Illustrator 15.1.0, SVG Export Plug-In . SVG Version: 6.00 Build 0)  -->
<!DOCTYPE svg PUBLIC "-//W3C//DTD SVG 1.1//EN" "http://www.w3.org/Graphics/SVG/1.1/DTD/svg11.dtd">
<svg version="1.1" id="Capa_1" xmlns="http://www.w3.org/2000/svg" xmlns:xlink="http://www.w3.org/1999/xlink" x="0px" y="0px"
	 width="539.072px" height="71.908px" viewBox="0 0 539.072 71.908" enable-background="new 0 0 539.072 71.908"
	 xml:space="preserve">
<g>
	<path fill="#FFFFFF" d="M8.922,27.695c-0.165-0.674-0.128-1.39-0.037-1.763c0.23-1.067,0.956-2.262,3.072-2.262
		c1.964,0,3.119,1.222,3.119,3.051v2.076h8.37v-2.356c0-7.303-6.581-8.466-11.328-8.466c-5.96,0-10.829,1.978-11.72,7.459
		c-0.244,1.505-0.287,2.829,0.066,4.522c1.454,6.861,13.379,8.846,15.116,13.188c0.324,0.809,0.227,1.842,0.064,2.478
		c-0.275,1.128-1.032,2.269-3.278,2.269c-2.096,0-3.35-1.223-3.35-3.056l-0.01-3.229H0v2.563c0,7.504,5.894,9.761,12.199,9.761
		c6.063,0,11.044-2.064,11.853-7.686c0.406-2.896,0.104-4.776-0.033-5.49C22.604,33.713,9.875,31.627,8.922,27.695 M118.059,27.777
		c-0.15-0.66-0.108-1.363-0.031-1.731c0.242-1.074,0.964-2.245,3.041-2.245c1.939,0,3.077,1.207,3.077,3.021v2.052h8.271v-2.341
		c0-7.229-6.482-8.363-11.174-8.363c-5.913,0-10.74,1.947-11.623,7.389c-0.231,1.479-0.289,2.794,0.084,4.475
		c1.434,6.783,13.245,8.748,14.959,13.039c0.305,0.812,0.219,1.852,0.063,2.461c-0.256,1.117-1.008,2.238-3.235,2.238
		c-2.089,0-3.345-1.199-3.345-3.01l-0.004-3.224h-8.905V44.1c0,7.418,5.811,9.656,12.068,9.656c5.995,0,10.945-2.049,11.741-7.602
		c0.378-2.869,0.091-4.736-0.06-5.439C131.599,33.757,119.012,31.664,118.059,27.777 M194.26,46.066l-7.905-27.021h-12.452v33.208
		h8.238l-0.478-27.881l8.488,27.881h11.941V19.045h-8.29L194.26,46.066z M35.927,19.045l-6.216,33.561h9.066l4.683-31.064
		l4.573,31.064h9.002l-6.191-33.562L35.927,19.045L35.927,19.045z M86.616,19.045l-4.233,26.232l-4.232-26.232H64.46l-0.726,33.561
		h8.388l0.225-31.063l5.773,31.063h8.508l5.777-31.063l0.228,31.063h8.409l-0.75-33.561H86.616z M164.6,19.045h-8.489v24.828
		c0.014,0.433,0,0.92-0.075,1.275c-0.177,0.832-0.884,2.437-3.225,2.437c-2.311,0-3.036-1.604-3.2-2.437
		c-0.085-0.355-0.096-0.846-0.085-1.275V19.045h-8.486v24.056c-0.01,0.619,0.039,1.888,0.075,2.22
		c0.587,6.271,5.528,8.306,11.696,8.306c6.182,0,11.119-2.034,11.715-8.306c0.046-0.332,0.107-1.601,0.074-2.22V19.045z
		 M222.873,33.768v4.896h3.438v4.854c0.01,0.436-0.013,0.9-0.088,1.276c-0.135,0.903-0.996,2.446-3.436,2.446
		c-2.428,0-3.274-1.543-3.42-2.446c-0.062-0.376-0.088-0.843-0.088-1.276V28.181c0-0.544,0.036-1.136,0.153-1.586
		c0.166-0.817,0.89-2.43,3.334-2.43c2.567,0,3.21,1.7,3.354,2.43c0.099,0.483,0.103,1.294,0.103,1.294v1.863h8.453V28.65
		c0,0,0.037-1.147-0.065-2.221c-0.632-6.296-5.82-8.287-11.769-8.287c-5.956,0-11.038,2.01-11.778,8.287
		c-0.068,0.574-0.169,1.604-0.169,2.221v14.108c0,0.614,0.018,1.089,0.133,2.215c0.55,6.12,5.858,8.291,11.791,8.291
		c5.972,0,11.242-2.171,11.802-8.291c0.099-1.126,0.109-1.601,0.124-2.215v-8.991H222.873z"/>
</g>
<g>
	<path fill="#FFFFFF" d="M312.837,49.216h2.221l4.209,11.817h-2.299l-0.729-2.104h-4.582l-0.729,2.104h-2.301L312.837,49.216z
		 M312.399,56.826h3.109l-1.555-4.485L312.399,56.826z"/>
	<path fill="#FFFFFF" d="M320.056,51.564h2.17v1.164c0.631-0.824,1.602-1.359,2.832-1.359c2.381,0,3.756,1.475,3.756,4.049v5.617
		h-2.217v-5.394c0-1.473-0.713-2.379-2.141-2.379c-1.246,0-2.217,0.906-2.217,2.573v5.195h-2.186L320.056,51.564L320.056,51.564z
		 M322.128,50.576c0-1.312,0.635-2.188,1.688-2.188c0.533,0,0.906,0.194,1.246,0.391c0.307,0.211,0.562,0.403,0.842,0.403
		c0.307,0,0.453-0.241,0.453-0.729h1.264c0,1.346-0.551,2.188-1.701,2.188c-0.631,0-1.033-0.292-1.404-0.502
		c-0.244-0.146-0.455-0.273-0.697-0.273c-0.275,0-0.42,0.242-0.42,0.713h-1.27V50.576z"/>
	<path fill="#FFFFFF" d="M329.751,56.307c0-2.769,2.17-4.938,4.906-4.938c2.719,0,4.904,2.17,4.904,4.938
		c0,2.721-2.188,4.924-4.904,4.924C331.921,61.229,329.751,59.027,329.751,56.307z M337.409,56.307c0-1.603-1.199-2.882-2.752-2.882
		c-1.57,0-2.754,1.278-2.754,2.882c0,1.57,1.184,2.866,2.754,2.866C336.21,59.174,337.409,57.878,337.409,56.307z"/>
	<path fill="#FFFFFF" d="M339.868,58.93l2.023-0.972c0.453,0.891,1.246,1.376,2.283,1.376c1.084,0,1.615-0.52,1.615-1.149
		c0-0.694-1.053-0.823-2.217-1.084c-1.619-0.341-3.316-0.856-3.316-2.85c0-1.521,1.473-2.898,3.723-2.898
		c1.928,0,3.141,0.745,3.869,1.96l-1.861,0.938c-0.389-0.664-1.1-1.085-2.008-1.085c-1.035,0-1.521,0.484-1.521,1.02
		c0,0.633,0.746,0.795,2.17,1.104c1.557,0.308,3.336,0.856,3.336,2.85c0,1.327-1.184,3.093-3.887,3.093
		C341.956,61.229,340.63,60.42,339.868,58.93z"/>
</g>
<g>
	<path fill="#FFFFFF" d="M366.815,13.912h-5.092v-3.396h13.76v3.396h-5.117v15.664h-3.551V13.912z"/>
	<path fill="#FFFFFF" d="M373.579,21.979c0-4.466,3.475-7.988,7.939-7.988c4.543,0,7.855,3.343,7.855,7.856v1.332h-12.428
		c0.496,2.167,2.193,3.604,4.699,3.604c1.98,0,3.498-1.045,4.229-2.688l2.898,1.671c-1.332,2.479-3.682,4.125-7.127,4.125
		C376.843,29.89,373.579,26.391,373.579,21.979z M377.132,20.23h8.666c-0.521-2.062-2.09-3.135-4.281-3.135
		C379.401,17.097,377.757,18.35,377.132,20.23z"/>
	<path fill="#FFFFFF" d="M390.448,21.953c0-4.465,3.471-7.963,7.938-7.963c3.42,0,6.107,1.957,7.281,4.727l-3.156,1.332
		c-0.705-1.671-2.221-2.741-4.102-2.741c-2.584,0-4.516,2.062-4.516,4.646c0,2.533,1.932,4.621,4.541,4.621
		c1.982,0,3.422-1.174,4.125-2.846l3.16,1.356c-1.201,2.819-3.785,4.804-7.336,4.804C393.919,29.89,390.448,26.339,390.448,21.953z"
		/>
	<path fill="#FFFFFF" d="M407.054,14.303h3.498v1.88c1.02-1.332,2.586-2.192,4.566-2.192c3.838,0,6.061,2.377,6.061,6.526v9.062
		h-3.578v-8.693c0-2.376-1.148-3.838-3.445-3.838c-2.01,0-3.576,1.462-3.576,4.15v8.379h-3.521L407.054,14.303L407.054,14.303z"/>
	<path fill="#FFFFFF" d="M422.722,21.953c0-4.465,3.498-7.963,7.91-7.963c4.387,0,7.908,3.498,7.908,7.963
		c0,4.387-3.521,7.938-7.908,7.938C426.22,29.89,422.722,26.339,422.722,21.953z M435.069,21.953c0-2.584-1.932-4.646-4.438-4.646
		c-2.531,0-4.438,2.062-4.438,4.646c0,2.533,1.906,4.621,4.438,4.621C433.138,26.574,435.069,24.486,435.069,21.953z"/>
	<path fill="#FFFFFF" d="M440.085,10.257h3.555v19.319h-3.555V10.257z"/>
	<path fill="#FFFFFF" d="M445.177,21.953c0-4.465,3.498-7.963,7.908-7.963c4.389,0,7.91,3.498,7.91,7.963
		c0,4.387-3.521,7.938-7.91,7.938C448.675,29.89,445.177,26.339,445.177,21.953z M457.526,21.953c0-2.584-1.932-4.646-4.439-4.646
		c-2.529,0-4.438,2.062-4.438,4.646c0,2.533,1.906,4.621,4.438,4.621C455.595,26.574,457.526,24.486,457.526,21.953z"/>
	<path fill="#FFFFFF" d="M474.655,27.54c-1.123,1.462-2.924,2.35-4.986,2.35c-3.682,0-7.52-2.924-7.52-7.938
		c0-5.063,3.707-7.963,7.572-7.963c2.01,0,3.785,0.89,4.904,2.271v-1.958h3.525v14.881c0,4.282-2.742,7.78-7.885,7.78
		c-3.971,0-6.449-1.854-7.832-4.387l3.135-1.904c1.121,2.062,2.322,3.055,4.752,3.055c2.662,0,4.332-2.089,4.332-4.412
		L474.655,27.54L474.655,27.54z M474.812,21.9c0-2.609-1.934-4.699-4.568-4.699c-2.607,0-4.621,2.062-4.621,4.699
		c0,2.664,2.014,4.752,4.621,4.752C472.882,26.652,474.812,24.539,474.812,21.9z"/>
	<path fill="#FFFFFF" d="M480.218,14.303h3.551v15.271h-3.551V14.303z M483.638,8.56h3.289l-3.916,4.438h-2.375L483.638,8.56z"/>
	<path fill="#FFFFFF" d="M485.31,21.953c0-5.064,3.707-7.963,7.572-7.963c2.01,0,3.781,0.811,4.904,2.142v-1.828h3.525v15.272
		h-3.525v-1.983c-1.123,1.437-2.949,2.298-4.961,2.298C489.147,29.89,485.31,26.966,485.31,21.953z M497.972,21.9
		c0-2.609-1.934-4.699-4.568-4.699c-2.611,0-4.621,2.062-4.621,4.699c0,2.664,2.01,4.752,4.621,4.752
		C496.04,26.652,497.972,24.539,497.972,21.9z"/>
</g>
<g>
	<path fill="#FFFFFF" d="M361.567,53.289c0-4.467,3.473-7.965,7.938-7.965c3.422,0,6.109,1.959,7.283,4.727l-3.158,1.332
		c-0.703-1.671-2.219-2.741-4.1-2.741c-2.584,0-4.516,2.062-4.516,4.647c0,2.531,1.932,4.619,4.541,4.619
		c1.982,0,3.422-1.176,4.125-2.846l3.16,1.356c-1.201,2.817-3.785,4.804-7.34,4.804C365.04,61.224,361.567,57.674,361.567,53.289z"
		/>
	<path fill="#FFFFFF" d="M377.573,53.289c0-4.467,3.498-7.965,7.91-7.965c4.387,0,7.912,3.498,7.912,7.965
		c0,4.386-3.525,7.937-7.912,7.937C381.071,61.224,377.573,57.674,377.573,53.289z M389.923,53.289c0-2.586-1.932-4.647-4.438-4.647
		c-2.533,0-4.438,2.062-4.438,4.647c0,2.531,1.902,4.619,4.438,4.619C387.991,57.908,389.923,55.82,389.923,53.289z"/>
	<path fill="#FFFFFF" d="M394.938,45.637h3.498v1.88c1.018-1.331,2.584-2.19,4.566-2.19c3.84,0,6.059,2.375,6.059,6.524v9.062
		h-3.576v-8.693c0-2.375-1.148-3.837-3.447-3.837c-2.01,0-3.576,1.462-3.576,4.149v8.381h-3.521L394.938,45.637L394.938,45.637z"/>
	<path fill="#FFFFFF" d="M417.577,41.851h6.525c3.939,0,6.867,3.028,6.867,6.788c0,3.785-2.928,6.812-6.895,6.812h-2.951v5.457
		h-3.551L417.577,41.851L417.577,41.851z M421.128,45.141v7.023h2.717c2.09,0,3.551-1.566,3.551-3.524s-1.461-3.499-3.551-3.499
		H421.128z"/>
	<path fill="#FFFFFF" d="M432.669,45.637h3.498v2.271c0.705-1.516,2.014-2.271,3.916-2.271c1.123,0,1.984,0.264,2.689,0.653
		l-1.332,3.342c-0.521-0.34-1.096-0.603-2.113-0.603c-2.062,0-3.133,1.099-3.133,3.732v8.146h-3.525V45.637L432.669,45.637z"/>
	<path fill="#FFFFFF" d="M442.931,53.289c0-4.467,3.498-7.965,7.91-7.965c4.387,0,7.908,3.498,7.908,7.965
		c0,4.386-3.521,7.937-7.908,7.937C446.429,61.224,442.931,57.674,442.931,53.289z M455.28,53.289c0-2.586-1.932-4.647-4.438-4.647
		c-2.533,0-4.439,2.062-4.439,4.647c0,2.531,1.906,4.619,4.439,4.619C453.349,57.908,455.28,55.82,455.28,53.289z"/>
	<path fill="#FFFFFF" d="M463.794,59.109v8.823h-3.498V45.637h3.498v2.037c1.07-1.438,2.871-2.352,4.961-2.352
		c3.84,0,7.521,2.896,7.521,7.963c0,5.015-3.812,7.938-7.494,7.938C466.692,61.224,464.864,60.467,463.794,59.109z M472.8,53.234
		c0-2.638-2.012-4.699-4.598-4.699c-2.637,0-4.543,2.091-4.543,4.699c0,2.639,1.906,4.752,4.543,4.752
		C470.79,57.986,472.8,55.898,472.8,53.234z"/>
	<path fill="#FFFFFF" d="M477.347,53.289c0-4.467,3.498-7.965,7.91-7.965c4.387,0,7.908,3.498,7.908,7.965
		c0,4.386-3.521,7.937-7.908,7.937C480.845,61.224,477.347,57.674,477.347,53.289z M489.696,53.289c0-2.586-1.932-4.647-4.438-4.647
		c-2.533,0-4.439,2.062-4.439,4.647c0,2.531,1.906,4.619,4.439,4.619C487.765,57.908,489.696,55.82,489.696,53.289z M487.06,39.633
		h3.289l-3.916,4.438h-2.377L487.06,39.633z"/>
	<path fill="#FFFFFF" d="M493.667,57.517l3.266-1.565c0.729,1.438,2.012,2.221,3.682,2.221c1.75,0,2.611-0.836,2.611-1.854
		c0-1.123-1.697-1.332-3.578-1.75c-2.609-0.55-5.354-1.385-5.354-4.597c0-2.454,2.375-4.673,6.006-4.673
		c3.105,0,5.062,1.201,6.238,3.159l-3.002,1.514c-0.627-1.069-1.773-1.749-3.236-1.749c-1.672,0-2.453,0.783-2.453,1.646
		c0,1.02,1.199,1.279,3.498,1.773c2.508,0.496,5.379,1.385,5.379,4.598c0,2.142-1.906,4.984-6.27,4.984
		C497.034,61.224,494.894,59.919,493.667,57.517z"/>
	<path fill="#FFFFFF" d="M510.013,39.685c1.383,0,2.219,0.89,2.219,2.22c0,1.332-0.836,2.192-2.219,2.192
		c-1.439,0-2.223-0.86-2.223-2.192C507.792,40.572,508.653,39.685,510.013,39.685z M508.237,45.637h3.551v15.271h-3.551V45.637z"/>
	<path fill="#FFFFFF" d="M513.276,45.637h2.611v-2.322l3.551-2.429v4.751h3.104v3.159h-3.104v5.718c0,2.663,0.391,3.081,3.104,3.081
		v3.313h-0.494c-4.729,0-6.16-1.515-6.16-6.368v-5.744h-2.611V45.637L513.276,45.637z"/>
	<path fill="#FFFFFF" d="M523.251,53.289c0-4.467,3.498-7.965,7.91-7.965c4.387,0,7.91,3.498,7.91,7.965
		c0,4.386-3.523,7.937-7.91,7.937C526.749,61.224,523.251,57.674,523.251,53.289z M535.599,53.289c0-2.586-1.934-4.647-4.438-4.647
		c-2.531,0-4.438,2.062-4.438,4.647c0,2.531,1.906,4.619,4.438,4.619C533.667,57.908,535.599,55.82,535.599,53.289z"/>
</g>
<g>
	<path fill="#FFFFFF" d="M312.716,45.701V16.359h-4.332v-6.182h10.945v35.523H312.716z"/>
	<path fill="#FFFFFF" d="M325.026,34.605V21.564c0-6.765,4.916-11.873,12.068-11.873c7.348,0,12.064,5.306,12.064,11.824v13.09
		c0,6.959-4.428,11.582-12.064,11.582C329.358,46.188,325.026,41.419,325.026,34.605z M342.544,34.363V21.76
		c0-3.355-1.895-5.547-5.398-5.547c-3.551,0-5.498,2.434-5.498,5.547v12.555c0,3.113,1.85,5.305,5.402,5.305
		C340.599,39.617,342.544,37.283,342.544,34.363z"/>
</g>
<line fill="none" stroke="#FFFFFF" stroke-width="2.268" stroke-miterlimit="10" x1="271.413" y1="-0.001" x2="271.413" y2="71.908"/>
</svg>
