<?xml version="1.0" encoding="utf-8"?>
<!-- Generator: Adobe Illustrator 15.1.0, SVG Export Plug-In . SVG Version: 6.00 Build 0)  -->
<!DOCTYPE svg PUBLIC "-//W3C//DTD SVG 1.1//EN" "http://www.w3.org/Graphics/SVG/1.1/DTD/svg11.dtd">
<svg version="1.1" id="Capa_1" xmlns="http://www.w3.org/2000/svg" xmlns:xlink="http://www.w3.org/1999/xlink" x="0px" y="0px"
	 width="292.096px" height="198.82px" viewBox="0 0 292.096 198.82" enable-background="new 0 0 292.096 198.82"
	 xml:space="preserve">
<g>
	<g display="none">
		<g display="inline">
			<defs>
				<rect id="SVGID_1_" x="0" y="0" width="612" height="792"/>
			</defs>
			<clipPath id="SVGID_2_">
				<use xlink:href="#SVGID_1_"  overflow="visible"/>
			</clipPath>
			<path clip-path="url(#SVGID_2_)" d="M35.403,326.76c-0.165-0.675-0.128-1.389-0.036-1.762c0.229-1.068,0.955-2.263,3.071-2.263
				c1.964,0,3.119,1.224,3.119,3.052v2.075h8.37v-2.357c0-7.301-6.581-8.464-11.328-8.464c-5.96,0-10.829,1.976-11.72,7.459
				c-0.244,1.504-0.287,2.829,0.065,4.521c1.454,6.863,13.38,8.847,15.116,13.188c0.324,0.808,0.228,1.841,0.064,2.476
				c-0.275,1.128-1.032,2.269-3.278,2.269c-2.096,0-3.35-1.223-3.35-3.056l-0.011-3.229H26.48v2.564
				c0,7.504,5.895,9.761,12.199,9.761c6.063,0,11.044-2.066,11.854-7.685c0.405-2.894,0.104-4.777-0.033-5.492
				C49.084,332.777,36.355,330.691,35.403,326.76 M144.54,326.842c-0.15-0.661-0.108-1.365-0.031-1.733
				c0.242-1.073,0.964-2.244,3.041-2.244c1.938,0,3.077,1.206,3.077,3.021v2.052h8.271v-2.34c0-7.229-6.481-8.365-11.174-8.365
				c-5.913,0-10.74,1.949-11.623,7.39c-0.23,1.479-0.289,2.794,0.084,4.473c1.435,6.783,13.245,8.749,14.959,13.04
				c0.306,0.813,0.219,1.85,0.063,2.46c-0.256,1.117-1.008,2.239-3.235,2.239c-2.089,0-3.345-1.199-3.345-3.009l-0.004-3.223h-8.905
				v2.562c0,7.418,5.811,9.655,12.068,9.655c5.994,0,10.944-2.048,11.74-7.6c0.378-2.868,0.092-4.737-0.06-5.441
				C158.08,332.821,145.493,330.728,144.54,326.842 M220.741,345.13l-7.905-27.021h-12.452v33.209h8.238l-0.479-27.882l8.488,27.882
				h11.941v-33.209h-8.29L220.741,345.13z M62.408,318.109l-6.217,33.561h9.066l4.683-31.065l4.573,31.065h9.002l-6.19-33.561
				H62.408z M113.097,318.109l-4.233,26.233l-4.231-26.233H90.94l-0.726,33.561h8.388l0.226-31.065l5.772,31.065h8.508l5.777-31.065
				l0.228,31.065h8.409l-0.75-33.561H113.097z M191.081,318.109h-8.489v24.828c0.014,0.433,0,0.92-0.075,1.276
				c-0.177,0.833-0.884,2.436-3.225,2.436c-2.312,0-3.036-1.603-3.2-2.436c-0.085-0.356-0.096-0.844-0.085-1.276v-24.828h-8.486
				v24.057c-0.01,0.62,0.039,1.886,0.075,2.219c0.587,6.269,5.528,8.304,11.696,8.304c6.182,0,11.119-2.035,11.715-8.304
				c0.046-0.333,0.106-1.599,0.074-2.219V318.109z M249.354,332.833v4.894h3.438v4.856c0.01,0.435-0.014,0.9-0.088,1.276
				c-0.136,0.904-0.996,2.448-3.437,2.448c-2.428,0-3.273-1.544-3.42-2.448c-0.062-0.376-0.088-0.842-0.088-1.276v-15.338
				c0-0.544,0.036-1.137,0.153-1.586c0.166-0.818,0.89-2.431,3.334-2.431c2.566,0,3.21,1.701,3.354,2.431
				c0.1,0.483,0.104,1.294,0.104,1.294v1.862h8.452v-1.101c0,0,0.037-1.149-0.065-2.22c-0.632-6.296-5.82-8.287-11.769-8.287
				c-5.956,0-11.038,2.009-11.778,8.287c-0.068,0.573-0.169,1.604-0.169,2.22v14.109c0,0.614,0.018,1.089,0.133,2.215
				c0.55,6.12,5.858,8.291,11.791,8.291c5.972,0,11.242-2.171,11.802-8.291c0.1-1.126,0.109-1.601,0.124-2.215v-8.991H249.354z"/>
		</g>
	</g>
	<g display="none">
		<g display="inline">
			<defs>
				<rect id="SVGID_3_" x="0" y="0" width="612" height="792"/>
			</defs>
			<clipPath id="SVGID_4_">
				<use xlink:href="#SVGID_3_"  overflow="visible"/>
			</clipPath>
			<rect x="297.175" y="299.063" clip-path="url(#SVGID_4_)" width="1.438" height="71.909"/>
		</g>
	</g>
</g>
<g>
	<path d="M18.026,10.404c-0.194-0.792-0.15-1.632-0.044-2.068c0.27-1.253,1.122-2.652,3.604-2.652c2.305,0,3.659,1.436,3.659,3.579
		v2.438h9.821V8.931c0-8.564-7.722-9.932-13.291-9.932c-6.993,0-12.706,2.32-13.752,8.752c-0.285,1.766-0.336,3.318,0.078,5.307
		C9.808,21.112,23.8,23.436,25.836,28.532c0.381,0.945,0.268,2.158,0.076,2.903c-0.322,1.323-1.211,2.661-3.846,2.661
		c-2.46,0-3.931-1.436-3.931-3.585l-0.013-3.789H7.558v3.011c0,8.804,6.916,11.451,14.312,11.451c7.113,0,12.958-2.425,13.907-9.017
		c0.476-3.396,0.121-5.605-0.039-6.443C34.077,17.462,19.144,15.016,18.026,10.404 M146.072,10.499
		c-0.176-0.774-0.127-1.603-0.033-2.033c0.281-1.261,1.13-2.634,3.565-2.634c2.274,0,3.609,1.416,3.609,3.544v2.407h9.704V9.038
		c0-8.482-7.604-9.813-13.108-9.813c-6.938,0-12.602,2.287-13.637,8.669c-0.272,1.736-0.341,3.279,0.098,5.248
		c1.682,7.958,15.54,10.267,17.55,15.299c0.358,0.955,0.257,2.173,0.075,2.889c-0.301,1.312-1.184,2.627-3.796,2.627
		c-2.451,0-3.925-1.406-3.925-3.53l-0.005-3.78h-10.448v3.005c0,8.703,6.818,11.329,14.159,11.329
		c7.034,0,12.842-2.401,13.774-8.917c0.442-3.363,0.106-5.558-0.069-6.383C161.958,17.515,147.19,15.059,146.072,10.499
		 M235.476,31.955l-9.274-31.702h-14.607v38.964h9.666l-0.562-32.714l9.958,32.714h14.012V0.253h-9.728L235.476,31.955z
		 M49.709,0.253l-7.294,39.375h10.638l5.495-36.447l5.364,36.447h10.563L67.211,0.253H49.709z M109.182,0.253l-4.966,30.778
		L99.248,0.253H83.187l-0.853,39.375h9.843L92.44,3.181l6.773,36.447h9.981l6.779-36.447l0.267,36.447h9.866l-0.88-39.375H109.182z
		 M200.677,0.253h-9.96v29.131c0.017,0.507,0,1.078-0.088,1.495c-0.208,0.979-1.037,2.859-3.783,2.859
		c-2.711,0-3.563-1.883-3.756-2.859c-0.102-0.417-0.111-0.988-0.102-1.495V0.253h-9.956v28.225c-0.012,0.729,0.048,2.213,0.09,2.604
		c0.688,7.354,6.484,9.744,13.724,9.744c7.253,0,13.045-2.391,13.744-9.744c0.055-0.392,0.125-1.876,0.087-2.604V0.253
		L200.677,0.253z M269.046,17.529v5.74h4.034v5.697c0.013,0.51-0.017,1.059-0.104,1.499c-0.159,1.062-1.169,2.87-4.032,2.87
		c-2.848,0-3.842-1.811-4.012-2.87c-0.073-0.439-0.104-0.989-0.104-1.499V10.971c0-0.639,0.044-1.333,0.182-1.859
		c0.191-0.96,1.044-2.854,3.911-2.854c3.013,0,3.766,1.997,3.935,2.854c0.117,0.565,0.122,1.519,0.122,1.519v2.186h9.915v-1.291
		c0,0,0.046-1.349-0.076-2.604c-0.741-7.387-6.827-9.723-13.807-9.723c-6.988,0-12.951,2.356-13.819,9.723
		c-0.08,0.675-0.198,1.885-0.198,2.604v16.555c0,0.722,0.021,1.275,0.155,2.599c0.646,7.183,6.874,9.729,13.835,9.729
		c7.007,0,13.188-2.547,13.847-9.729c0.116-1.321,0.129-1.877,0.146-2.599V17.531L269.046,17.529L269.046,17.529z"/>
</g>
<g>
	<rect x="60.897" y="83.367" width="168.737" height="1.687"/>
</g>
<g>
	<path fill="#1C1C1B" d="M5.635,174.122h2.808l5.328,14.96h-2.91l-0.922-2.664H4.14l-0.922,2.664h-2.91L5.635,174.122z
		 M5.08,183.754h3.936l-1.967-5.677L5.08,183.754z"/>
	<path fill="#1C1C1B" d="M14.797,177.094h2.745v1.478c0.8-1.047,2.029-1.724,3.586-1.724c3.014,0,4.755,1.865,4.755,5.123v7.111
		h-2.809v-6.824c0-1.864-0.9-3.013-2.705-3.013c-1.578,0-2.807,1.146-2.807,3.259v6.578h-2.768v-11.988H14.797z M17.419,175.844
		c0-1.66,0.8-2.767,2.132-2.767c0.676,0,1.146,0.246,1.577,0.492c0.391,0.267,0.718,0.512,1.066,0.512
		c0.389,0,0.574-0.309,0.574-0.922h1.598c0,1.701-0.697,2.767-2.151,2.767c-0.8,0-1.312-0.369-1.783-0.635
		c-0.308-0.187-0.574-0.349-0.881-0.349c-0.35,0-0.533,0.308-0.533,0.899L17.419,175.844L17.419,175.844z"/>
	<path fill="#1C1C1B" d="M27.073,183.099c0-3.505,2.746-6.251,6.209-6.251c3.443,0,6.209,2.746,6.209,6.251
		c0,3.442-2.766,6.229-6.209,6.229C29.819,189.328,27.073,186.541,27.073,183.099z M36.766,183.099c0-2.027-1.518-3.646-3.484-3.646
		c-1.988,0-3.483,1.619-3.483,3.646c0,1.987,1.495,3.627,3.483,3.627C35.249,186.726,36.766,185.086,36.766,183.099z"/>
	<path fill="#1C1C1B" d="M39.882,186.418l2.562-1.229c0.574,1.127,1.578,1.742,2.89,1.742c1.373,0,2.05-0.656,2.05-1.455
		c0-0.882-1.332-1.045-2.809-1.373c-2.049-0.431-4.201-1.086-4.201-3.604c0-1.928,1.865-3.669,4.713-3.669
		c2.438,0,3.977,0.941,4.898,2.479l-2.357,1.189c-0.491-0.841-1.394-1.373-2.541-1.373c-1.312,0-1.926,0.614-1.926,1.291
		c0,0.799,0.943,1.004,2.746,1.394c1.967,0.391,4.221,1.086,4.221,3.606c0,1.681-1.495,3.914-4.918,3.914
		C42.526,189.328,40.846,188.304,39.882,186.418z"/>
</g>
<g>
	<path fill="#1C1C1B" d="M73.985,129.41h-6.448v-4.298h17.425v4.298h-6.479v19.84h-4.497V129.41L73.985,129.41z"/>
	<path fill="#1C1C1B" d="M82.514,139.628c0-5.654,4.397-10.118,10.052-10.118c5.753,0,9.953,4.232,9.953,9.953v1.686H86.78
		c0.628,2.745,2.777,4.563,5.952,4.563c2.513,0,4.431-1.322,5.357-3.405l3.67,2.116c-1.688,3.141-4.663,5.224-9.027,5.224
		C86.647,149.647,82.514,145.216,82.514,139.628z M87.011,137.412h10.978c-0.662-2.612-2.646-3.968-5.423-3.968
		C89.888,133.445,87.804,135.031,87.011,137.412z"/>
	<path fill="#1C1C1B" d="M103.871,139.595c0-5.654,4.398-10.085,10.053-10.085c4.332,0,7.736,2.479,9.225,5.985l-4.001,1.686
		c-0.894-2.116-2.812-3.472-5.191-3.472c-3.273,0-5.721,2.612-5.721,5.886c0,3.207,2.447,5.854,5.753,5.854
		c2.513,0,4.332-1.487,5.225-3.604l4.002,1.72c-1.521,3.571-4.795,6.084-9.292,6.084C108.27,149.647,103.871,145.15,103.871,139.595
		z"/>
	<path fill="#1C1C1B" d="M124.899,129.906h4.431v2.381c1.29-1.688,3.274-2.777,5.787-2.777c4.861,0,7.671,3.009,7.671,8.269v11.474
		h-4.529v-11.011c0-3.01-1.455-4.861-4.364-4.861c-2.546,0-4.53,1.854-4.53,5.258v10.614H124.9L124.899,129.906L124.899,129.906z"/>
	<path fill="#1C1C1B" d="M144.736,139.595c0-5.654,4.433-10.085,10.021-10.085c5.555,0,10.019,4.431,10.019,10.085
		c0,5.555-4.464,10.052-10.019,10.052C149.167,149.647,144.736,145.15,144.736,139.595z M160.376,139.595
		c0-3.271-2.446-5.886-5.621-5.886c-3.207,0-5.621,2.612-5.621,5.886c0,3.207,2.414,5.854,5.621,5.854
		C157.93,145.448,160.376,142.802,160.376,139.595z"/>
	<path fill="#1C1C1B" d="M166.723,124.781h4.496v24.469h-4.496V124.781z"/>
	<path fill="#1C1C1B" d="M173.169,139.595c0-5.654,4.431-10.085,10.02-10.085c5.555,0,10.021,4.431,10.021,10.085
		c0,5.555-4.465,10.052-10.021,10.052C177.6,149.647,173.169,145.15,173.169,139.595z M188.81,139.595
		c0-3.271-2.447-5.886-5.621-5.886c-3.208,0-5.622,2.612-5.622,5.886c0,3.207,2.414,5.854,5.622,5.854
		C186.363,145.448,188.81,142.802,188.81,139.595z"/>
	<path fill="#1C1C1B" d="M210.531,146.671c-1.422,1.852-3.703,2.976-6.313,2.976c-4.662,0-9.523-3.702-9.523-10.052
		c0-6.415,4.695-10.085,9.589-10.085c2.549,0,4.795,1.124,6.219,2.877v-2.479h4.464v18.848c0,5.423-3.474,9.854-9.986,9.854
		c-5.024,0-8.167-2.349-9.919-5.556l3.968-2.414c1.422,2.612,2.942,3.869,6.02,3.869c3.373,0,5.487-2.646,5.487-5.589v-2.249
		L210.531,146.671L210.531,146.671z M210.73,139.529c0-3.309-2.447-5.951-5.786-5.951c-3.307,0-5.854,2.61-5.854,5.951
		c0,3.373,2.547,6.019,5.854,6.019C208.282,145.547,210.73,142.868,210.73,139.529z"/>
	<path fill="#1C1C1B" d="M217.572,129.906h4.496v19.344h-4.496V129.906z M221.903,122.632h4.166l-4.96,5.621H218.1L221.903,122.632z
		"/>
	<path fill="#1C1C1B" d="M224.018,139.595c0-6.415,4.695-10.085,9.589-10.085c2.547,0,4.795,1.025,6.217,2.711v-2.312h4.466v19.344
		h-4.466v-2.514c-1.422,1.817-3.734,2.908-6.28,2.908C228.879,149.647,224.018,145.943,224.018,139.595z M240.055,139.529
		c0-3.309-2.447-5.951-5.786-5.951c-3.307,0-5.854,2.61-5.854,5.951c0,3.373,2.547,6.019,5.854,6.019
		C237.608,145.547,240.055,142.868,240.055,139.529z"/>
</g>
<g>
	<path fill="#1C1C1B" d="M67.337,179.27c0-5.652,4.398-10.085,10.053-10.085c4.332,0,7.736,2.479,9.225,5.984l-4.001,1.687
		c-0.893-2.114-2.811-3.472-5.19-3.472c-3.274,0-5.722,2.612-5.722,5.886c0,3.207,2.447,5.854,5.753,5.854
		c2.514,0,4.332-1.488,5.226-3.604l4.001,1.721c-1.521,3.569-4.794,6.084-9.292,6.084C71.736,189.322,67.337,184.824,67.337,179.27z
		"/>
	<path fill="#1C1C1B" d="M87.605,179.27c0-5.652,4.431-10.085,10.019-10.085c5.556,0,10.02,4.433,10.02,10.085
		c0,5.557-4.464,10.054-10.02,10.054C92.035,189.322,87.605,184.824,87.605,179.27z M103.244,179.27
		c0-3.271-2.446-5.886-5.621-5.886c-3.208,0-5.621,2.612-5.621,5.886c0,3.207,2.414,5.854,5.621,5.854
		C100.798,185.122,103.244,182.477,103.244,179.27z"/>
	<path fill="#1C1C1B" d="M109.592,169.581h4.431v2.381c1.29-1.688,3.273-2.777,5.787-2.777c4.86,0,7.671,3.011,7.671,8.269v11.474
		h-4.53v-11.013c0-3.009-1.455-4.86-4.364-4.86c-2.546,0-4.529,1.854-4.529,5.257v10.614h-4.464L109.592,169.581L109.592,169.581z"
		/>
	<path fill="#1C1C1B" d="M138.256,164.787h8.267c4.993,0,8.696,3.835,8.696,8.597c0,4.795-3.703,8.63-8.729,8.63h-3.734v6.911
		h-4.497L138.256,164.787L138.256,164.787z M142.753,168.953v8.895h3.438c2.646,0,4.497-1.981,4.497-4.464
		c0-2.479-1.852-4.431-4.497-4.431H142.753z"/>
	<path fill="#1C1C1B" d="M157.366,169.581h4.433v2.877c0.893-1.918,2.546-2.877,4.96-2.877c1.422,0,2.513,0.331,3.405,0.827
		l-1.688,4.23c-0.661-0.43-1.389-0.761-2.678-0.761c-2.612,0-3.968,1.389-3.968,4.729v10.315h-4.465L157.366,169.581
		L157.366,169.581z"/>
	<path fill="#1C1C1B" d="M170.325,179.27c0-5.652,4.433-10.085,10.021-10.085c5.555,0,10.019,4.433,10.019,10.085
		c0,5.557-4.464,10.054-10.019,10.054C174.756,189.322,170.325,184.824,170.325,179.27z M185.966,179.27
		c0-3.271-2.447-5.886-5.621-5.886c-3.208,0-5.622,2.612-5.622,5.886c0,3.207,2.414,5.854,5.622,5.854
		C183.519,185.122,185.966,182.477,185.966,179.27z"/>
	<path fill="#1C1C1B" d="M196.743,186.644v11.178h-4.431v-28.238h4.431v2.579c1.355-1.818,3.639-2.978,6.282-2.978
		c4.86,0,9.522,3.67,9.522,10.085c0,6.351-4.827,10.054-9.489,10.054C200.413,189.322,198.099,188.363,196.743,186.644z
		 M208.151,179.203c0-3.339-2.546-5.951-5.817-5.951c-3.342,0-5.754,2.645-5.754,5.951c0,3.34,2.412,6.019,5.754,6.019
		C205.605,185.222,208.151,182.576,208.151,179.203z"/>
	<path fill="#1C1C1B" d="M213.935,179.27c0-5.652,4.431-10.085,10.021-10.085c5.555,0,10.019,4.433,10.019,10.085
		c0,5.557-4.464,10.054-10.019,10.054C218.365,189.322,213.935,184.824,213.935,179.27z M229.575,179.27
		c0-3.271-2.445-5.886-5.619-5.886c-3.208,0-5.622,2.612-5.622,5.886c0,3.207,2.414,5.854,5.622,5.854
		C227.128,185.122,229.575,182.477,229.575,179.27z M226.236,161.977h4.166l-4.96,5.621h-3.009L226.236,161.977z"/>
	<path fill="#1C1C1B" d="M234.599,184.626l4.134-1.983c0.926,1.818,2.546,2.812,4.662,2.812c2.215,0,3.307-1.061,3.307-2.35
		c0-1.422-2.147-1.687-4.528-2.216c-3.309-0.692-6.778-1.752-6.778-5.817c0-3.108,3.009-5.92,7.604-5.92
		c3.936,0,6.415,1.521,7.901,4.002l-3.803,1.918c-0.794-1.355-2.248-2.218-4.101-2.218c-2.116,0-3.107,0.992-3.107,2.084
		c0,1.289,1.521,1.62,4.431,2.248c3.175,0.629,6.812,1.753,6.812,5.819c0,2.712-2.414,6.315-7.938,6.315
		C238.865,189.322,236.154,187.668,234.599,184.626z"/>
	<path fill="#1C1C1B" d="M255.296,162.042c1.753,0,2.811,1.125,2.811,2.811c0,1.688-1.058,2.778-2.811,2.778
		c-1.818,0-2.812-1.092-2.812-2.778C252.486,163.167,253.576,162.042,255.296,162.042z M253.048,169.581h4.496v19.344h-4.496
		V169.581z"/>
	<path fill="#1C1C1B" d="M259.428,169.581h3.307v-2.942l4.497-3.075v6.02h3.938v4.001h-3.938v7.241c0,3.373,0.496,3.9,3.938,3.9
		v4.199h-0.629c-5.984,0-7.806-1.918-7.806-8.068v-7.272h-3.307V169.581L259.428,169.581z"/>
	<path fill="#1C1C1B" d="M272.057,179.27c0-5.652,4.431-10.085,10.02-10.085c5.557,0,10.021,4.433,10.021,10.085
		c0,5.557-4.464,10.054-10.021,10.054C276.488,189.322,272.057,184.824,272.057,179.27z M287.698,179.27
		c0-3.271-2.445-5.886-5.621-5.886c-3.208,0-5.62,2.612-5.62,5.886c0,3.207,2.412,5.854,5.62,5.854
		C285.25,185.122,287.698,182.477,287.698,179.27z"/>
</g>
<g>
	<path fill="#1C1C1B" d="M5.483,169.666v-37.154h-5.483v-7.824h13.863v44.979L5.483,169.666L5.483,169.666z"/>
	<path fill="#1C1C1B" d="M21.072,155.618v-16.515c0-8.562,6.223-15.031,15.28-15.031c9.304,0,15.281,6.716,15.281,14.972v16.575
		c0,8.811-5.607,14.664-15.281,14.664C26.556,170.282,21.072,164.244,21.072,155.618z M43.252,155.31v-15.958
		c0-4.252-2.402-7.022-6.839-7.022c-4.498,0-6.962,3.081-6.962,7.022v15.896c0,3.941,2.341,6.716,6.839,6.716
		S43.252,159.007,43.252,155.31z"/>
</g>
</svg>
