<?xml version="1.0" encoding="UTF-8"?><svg id="a" xmlns="http://www.w3.org/2000/svg" viewBox="0 0 515.34 97.85"><g><rect x="100.79" y=".2" width="1.73" height="96.56"/><path d="M63.81,15.68H5.9c-.74,0-1.35,.6-1.35,1.35s.6,1.35,1.35,1.35H63.81c.74,0,1.35-.6,1.35-1.35s-.6-1.35-1.35-1.35"/><path d="M63.81,22.54H5.9c-.74,0-1.35,.6-1.35,1.35s.6,1.35,1.35,1.35H63.81c.74,0,1.35-.6,1.35-1.35s-.6-1.35-1.35-1.35"/><path d="M5.9,21.81h3.01c.74,0,1.35-.6,1.35-1.35s-.6-1.35-1.35-1.35h-3.01c-.74,0-1.35,.6-1.35,1.35s.6,1.35,1.35,1.35"/><path d="M63.81,19.11h-3.01c-.74,0-1.35,.6-1.35,1.35s.6,1.35,1.35,1.35h3.01c.74,0,1.35-.6,1.35-1.35s-.6-1.35-1.35-1.35"/><path d="M37.86,21.81c.74,0,1.35-.6,1.35-1.35s-.6-1.35-1.35-1.35h-6.03c-.74,0-1.35,.6-1.35,1.35s.6,1.35,1.35,1.35h6.03Z"/><polygon points="15.93 20.41 20.37 21.93 24.81 20.41 20.37 18.89 15.93 20.41"/><polygon points="44.89 20.41 49.32 21.93 53.77 20.41 49.32 18.89 44.89 20.41"/><path d="M58.07,20.41c0-.81-.66-1.47-1.47-1.47s-1.47,.66-1.47,1.47,.65,1.47,1.47,1.47,1.47-.66,1.47-1.47"/><path d="M43.52,20.41c0-.81-.66-1.47-1.47-1.47s-1.47,.66-1.47,1.47,.66,1.47,1.47,1.47,1.47-.66,1.47-1.47"/><path d="M29.12,20.41c0-.81-.66-1.47-1.47-1.47s-1.47,.66-1.47,1.47,.66,1.47,1.47,1.47,1.47-.66,1.47-1.47"/><path d="M14.56,20.41c0-.81-.66-1.47-1.47-1.47s-1.47,.66-1.47,1.47,.66,1.47,1.47,1.47,1.47-.66,1.47-1.47"/><path d="M66.69,.2c-2.28,0-3.61,1.92-3.96,2.52-.16-.04-.86-.14-1.08-.14-.86,0-1.33,.08-1.63,.3,.59,.38,1.34,.93,1.5,2.26-1.31-.16-1.86-.91-2.24-1.49-.21,.31-.3,.77-.3,1.63,0,.18,0,.4,0,.58-.97,.09-1.91,.67-2.31,1.22,.4,.55,1.35,1.13,2.31,1.22,0,.18,0,.4,0,.58,0,.86,.08,1.32,.3,1.63,.43-.66,1.07-1.52,2.77-1.52h.25c0,.11,0,.22,0,.32,0,1.49-.69,2.85-2.5,2.85-1.21,0-1.85-.89-2.13-1.44,.2-.28,.32-.62,.32-.99,0-.94-.76-1.69-1.69-1.69s-1.69,.76-1.69,1.69c0,.37,.12,.71,.32,.99-.28,.56-.93,1.44-2.13,1.44-1.81,0-2.51-1.36-2.51-2.85,0-.1,0-.21,0-.32h.25c1.71,0,2.34,.86,2.77,1.52,.21-.31,.3-.77,.3-1.63,0-.18,0-.4,0-.58,.97-.09,1.91-.67,2.31-1.22-.4-.55-1.35-1.13-2.31-1.22,0-.18,0-.4,0-.58,0-.86-.08-1.32-.3-1.63-.38,.59-.93,1.34-2.24,1.49,.15-1.33,.9-1.88,1.49-2.26-.3-.21-.77-.3-1.63-.3-.18,0-.39,0-.58,0-.09-.97-.67-1.91-1.22-2.31-.55,.4-1.13,1.35-1.22,2.31-.18,0-.4,0-.58,0-.86,0-1.33,.08-1.63,.3,.59,.38,1.34,.93,1.49,2.26-1.31-.16-1.86-.91-2.24-1.49-.21,.31-.3,.77-.3,1.63,0,.18,0,.4,0,.58-.97,.09-1.91,.67-2.31,1.22,.4,.55,1.35,1.13,2.31,1.22,0,.18,0,.4,0,.58,0,.86,.09,1.32,.3,1.63,.43-.66,1.07-1.52,2.77-1.52h.25c0,.11,0,.22,0,.32,0,1.49-.69,2.85-2.5,2.85-1.21,0-1.85-.89-2.13-1.44,.2-.28,.32-.62,.32-.99,0-.94-.76-1.69-1.69-1.69-.12,0-.23,.01-.34,.04-.77,.16-1.35,.84-1.35,1.66,0,.37,.12,.71,.31,.99-.28,.56-.92,1.44-2.13,1.44-1.81,0-2.51-1.36-2.51-2.85,0-.1,0-.21,0-.32h.25c1.7,0,2.34,.86,2.77,1.52,.21-.31,.3-.77,.3-1.63,0-.18,0-.4,0-.58,.97-.09,1.91-.67,2.31-1.22-.4-.55-1.35-1.13-2.31-1.22,0-.18,0-.4,0-.58,0-.86-.09-1.32-.3-1.63-.38,.59-.93,1.34-2.24,1.49,.15-1.33,.9-1.88,1.5-2.26-.3-.21-.77-.3-1.63-.3-.18,0-.4,0-.58,0-.1-.97-.67-1.91-1.22-2.31-.55,.4-1.13,1.35-1.22,2.31-.18,0-.4,0-.58,0-.86,0-1.33,.08-1.63,.3,.59,.38,1.34,.93,1.49,2.26-1.31-.16-1.86-.91-2.24-1.49-.21,.31-.29,.77-.29,1.63,0,.18,0,.4,.01,.58-.97,.09-1.91,.67-2.31,1.22,.4,.55,1.35,1.13,2.31,1.22-.01,.18-.01,.4-.01,.58,0,.86,.08,1.32,.29,1.63,.43-.66,1.07-1.52,2.77-1.52h.26c0,.11,0,.22,0,.32,0,1.49-.69,2.85-2.51,2.85-1.21,0-1.85-.89-2.13-1.45,.2-.28,.31-.61,.31-.98,0-.94-.76-1.69-1.69-1.69s-1.69,.76-1.69,1.69c0,.37,.12,.71,.32,.99-.28,.55-.93,1.44-2.13,1.44-1.81,0-2.5-1.36-2.5-2.85,0-.1,0-.21,.01-.32h.25c1.7,0,2.34,.86,2.77,1.52,.21-.31,.3-.77,.3-1.63v-.58c.97-.09,1.91-.67,2.31-1.22-.4-.55-1.35-1.13-2.31-1.22v-.58c0-.86-.08-1.32-.3-1.63-.38,.59-.93,1.34-2.24,1.49,.15-1.33,.9-1.88,1.49-2.26-.3-.21-.77-.3-1.63-.3-.18,0-.39,0-.58,0-.09-.97-.67-1.91-1.22-2.31-.55,.4-1.13,1.35-1.22,2.31-.18,0-.4,0-.58,0-.86,0-1.33,.08-1.63,.3,.59,.38,1.34,.93,1.5,2.26-1.32-.16-1.86-.91-2.24-1.49-.21,.31-.3,.77-.3,1.63,0,.18,0,.4,.01,.58-.97,.09-1.91,.67-2.31,1.22,.4,.55,1.35,1.13,2.31,1.22,0,.18-.01,.4-.01,.58,0,.86,.09,1.32,.3,1.63,.43-.66,1.07-1.52,2.77-1.52h.25c0,.11,.01,.22,.01,.32,0,1.49-.69,2.85-2.51,2.85-1.21,0-1.84-.89-2.13-1.44,.2-.28,.31-.62,.31-.99,0-.94-.75-1.69-1.69-1.69-.47,0-.89,.19-1.2,.5-.31,.31-.5,.73-.5,1.2,0,.37,.12,.71,.32,.99-.28,.56-.93,1.44-2.13,1.44-1.81,0-2.51-1.36-2.51-2.85,0-.1,0-.21,.01-.32h.25c1.7,0,2.33,.86,2.77,1.52,.21-.31,.3-.77,.3-1.63,0-.18,0-.4-.01-.58,.97-.09,1.91-.67,2.31-1.22-.4-.55-1.35-1.13-2.31-1.22,.01-.18,.01-.4,.01-.58,0-.86-.09-1.32-.3-1.63-.38,.59-.93,1.34-2.24,1.49,.15-1.33,.91-1.88,1.5-2.26-.3-.21-.77-.3-1.63-.3-.22,0-.92,.1-1.08,.14C6.62,2.12,5.29,.2,3,.2,1.54,.2,.2,.91,0,1.11c.76,0,1.98,.06,3,1.08,1.44,1.43,1.54,2.59,1.54,6.53,0,4.2,2.16,6.25,5.25,6.25,1.78,0,3.6-1.37,3.6-1.37,0,0,1.82,1.37,3.6,1.37,1.89,0,3.55-1.45,3.55-1.45,0,0,1.67,1.45,3.56,1.45,1.78,0,3.59-1.37,3.59-1.37,0,0,1.82,1.37,3.6,1.37,1.89,0,3.56-1.45,3.56-1.45,0,0,1.67,1.45,3.55,1.45,1.78,0,3.6-1.37,3.6-1.37,0,0,1.82,1.37,3.6,1.37,1.89,0,3.55-1.45,3.55-1.45,0,0,1.67,1.45,3.55,1.45,1.78,0,3.6-1.37,3.6-1.37,0,0,1.81,1.37,3.59,1.37,3.1,0,5.25-2.05,5.25-6.25,0-3.94,.11-5.09,1.54-6.53,1.02-1.02,2.24-1.08,3-1.08-.19-.19-1.54-.91-3-.91"/><path d="M62.37,32.23l-1.95-.21-.79,1.79-.79-1.79-1.94,.21,1.16-1.58-1.16-1.58,1.94,.21,.79-1.79,.79,1.79,1.95-.21-1.16,1.58,1.16,1.58Zm0,23.68l-1.95-.21-.79,1.79-.79-1.79-1.94,.21,1.16-1.58-1.16-1.58,1.94,.21,.79-1.79,.79,1.79,1.95-.21-1.16,1.58,1.16,1.58Zm-.36,23.67l-1.94-.21-.79,1.79-.79-1.79-1.94,.21,1.16-1.58-1.16-1.58,1.94,.21,.79-1.79,.79,1.79,1.94-.21-1.16,1.58,1.16,1.58Zm-6.97-6.25c0,1.37-.13,3.16-.82,5h-4.64l-1.57-3.55c.64-.67,1.03-1.59,1.03-2.59,0-.69-.18-1.34-.51-1.89l-1.82-3.14-2.18-6.21-.16-2.53,.48-.27c.35-.19,.52-.65,.39-1.02l-.14-.43c-.13-.37-.55-.62-.94-.55l-.71,.13-1.04-.82c-.16-.12-.44-.19-.63-.15l-.64,.13-1.48-1.17c-.15-.12-.37-.09-.49,.07l-.86,1.19c-.17,.24-.19,.64-.03,.89l1.32,2.13v3.82h-.94c-.52,0-.94-.56-.94-1.25v-1.22c0-.2-.11-.47-.25-.61l-.86-.86v-4.89c6.19-.61,10.93-4.03,10.93-8.14,0-4.55-5.79-8.24-12.93-8.24s-12.93,3.69-12.93,8.24c0,4.12,4.74,7.53,10.93,8.14v22.4c0,1.32-1.07,2.39-2.39,2.39H15.46c-.68-1.84-.82-3.63-.82-5V35.13H55.04v38.21h0Zm-13.89,1.58l1.99,2.34-1.03,.35c-.18,.06-.43,.24-.54,.41l-.22,.32h-2.31c-1.32,0-2.39-1.07-2.39-2.39v-11.08l1.39,2.77c.18,.35,.61,.56,.97,.46l.65-.17v.55c0,.66,.04,1.24,.11,1.75,.32,2.35,1.26,3.13,1.7,3.37l-.35,.48c-.17,.24-.15,.62,.04,.85m-6.31,12.32c-11.24,0-16.26-3.36-18.48-7.03H53.33c-2.22,3.67-7.25,7.03-18.49,7.03m-21.7-7.66l-1.95-.21-.79,1.79-.79-1.79-1.95,.21,1.16-1.58-1.16-1.58,1.95,.21,.79-1.79,.79,1.79,1.95-.21-1.16,1.58,1.16,1.58Zm-5.83-26.83l1.95,.21,.79-1.79,.79,1.79,1.94-.21-1.16,1.58,1.16,1.58-1.94-.21-.79,1.79-.79-1.79-1.95,.21,1.16-1.58-1.16-1.58Zm0-23.68l1.95,.21,.79-1.79,.79,1.79,1.94-.21-1.16,1.58,1.16,1.58-1.94-.21-.79,1.79-.79-1.79-1.95,.21,1.16-1.58-1.16-1.58Zm24.79,0l1.95,.21,.79-1.79,.79,1.79,1.94-.21-1.15,1.58,1.15,1.58-1.94-.21-.79,1.79-.79-1.79-1.95,.21,1.16-1.58-1.16-1.58Zm-26.64-2.9v48.17c0,14.27,9.92,22.4,29.38,22.4s29.38-8.14,29.38-22.4V26.18H5.46Z"/></g><g><g><rect x="138.62" width="6.56" height="97.21"/><polygon points="200.46 79.3 200.46 72.74 163.47 72.74 163.47 0 156.91 0 156.91 72.74 156.91 79.3 156.91 90.65 156.91 97.21 163.47 97.21 200.46 97.21 200.46 90.65 163.47 90.65 163.47 79.3 200.46 79.3"/><g><polygon points="213.24 0 207.01 0 207.01 3.23 207.01 97.21 213.57 97.21 213.57 14.95 225.3 35.88 225.3 97.21 231.86 97.21 231.86 47.6 259.64 97.21 267.68 97.21 213.57 .59 213.24 0"/><polygon points="277.92 0 277.92 82.85 266.2 61.91 266.2 0 259.63 0 259.63 50.2 231.52 0 223.49 0 277.92 97.2 277.92 97.21 277.92 97.21 284.48 97.21 284.48 94.56 284.48 0 277.92 0"/></g></g><g><path d="M311.56,25.35V.05h4.6V21h11.74v4.35h-16.35Z"/><path d="M346.21,25.35l-1.64-4.85h-10.06l-1.64,4.85h-4.64L337.11,.05h5.03l8.89,25.3h-4.82Zm-6.67-19.66l-3.6,10.67h7.21l-3.6-10.67Z"/><path d="M376.94,25.35l-10.96-17.38V25.35h-4.53V.05h4.89l10.81,17.13V.05h4.53V25.35h-4.75Z"/><path d="M402.64,25.35l-1.64-4.85h-10.06l-1.64,4.85h-4.64L393.54,.05h5.03l8.89,25.3h-4.82Zm-6.67-19.66l-3.6,10.67h7.21l-3.6-10.67Z"/><path d="M419.84,25.35h-5.07L406.38,.05h4.89l6.14,19.31L423.51,.05h4.64l-8.32,25.3Z"/><path d="M431.11,25.35V.05h18.02V4.22h-13.42v5.89h11.81v4.14h-11.81v6.92h13.42v4.18h-18.02Z"/><path d="M329.8,53.29c-.05,1.19-.29,2.27-.73,3.25-.44,.98-1.03,1.84-1.77,2.61-.76,.76-1.74,1.4-2.93,1.93-1.19,.52-2.47,.79-3.85,.79-1.28,0-2.52-.23-3.71-.68-1.19-.45-2.24-1.13-3.14-2.03-.69-.67-1.24-1.4-1.66-2.19s-.74-1.64-.96-2.52c-.23-.88-.38-1.8-.45-2.77-.07-.96-.11-1.94-.11-2.94s.04-1.98,.11-2.94c.07-.96,.22-1.89,.45-2.77,.23-.88,.55-1.72,.96-2.52,.42-.8,.97-1.53,1.66-2.19,.9-.9,1.95-1.58,3.14-2.03,1.19-.45,2.43-.68,3.71-.68,1.38,0,2.66,.24,3.84,.73,1.18,.49,2.15,1.11,2.91,1.87,.74,.76,1.33,1.62,1.77,2.57,.44,.95,.68,2.02,.73,3.21h-3.28c-.02-.69-.16-1.33-.41-1.93s-.58-1.13-.98-1.61c-.5-.55-1.14-.99-1.93-1.34-.79-.34-1.67-.52-2.64-.52-.86,0-1.68,.17-2.48,.5-.8,.33-1.5,.81-2.12,1.43-.52,.55-.93,1.15-1.21,1.82-.29,.67-.5,1.36-.64,2.09-.14,.73-.23,1.46-.25,2.19-.02,.74-.04,1.44-.04,2.11s.01,1.37,.04,2.11c.02,.74,.11,1.47,.25,2.19,.14,.73,.36,1.43,.64,2.11,.29,.68,.69,1.28,1.21,1.8,.62,.62,1.33,1.09,2.12,1.43,.8,.33,1.62,.5,2.48,.5,.98,0,1.86-.18,2.66-.55,.8-.37,1.45-.83,1.94-1.37,.4-.48,.73-1.03,.98-1.66,.25-.63,.39-1.29,.41-1.98h3.28Z"/><path d="M333.72,61.35v-25.3h16.92v2.93h-13.74v7.71h12.06v3h-12.06v8.74h13.74v2.93h-16.92Z"/><path d="M370.44,61.35l-12.42-20.34v20.34h-3.07v-25.3h3.57l12.42,20.41v-20.41h3.07v25.3h-3.57Z"/><path d="M387.72,39.01v22.34h-3.21v-22.34h-7.53v-2.96h18.27v2.96h-7.53Z"/><path d="M413.16,61.35l-4.78-10.53h-7v10.53h-3.18v-25.3h9.92c1.5,0,2.77,.2,3.82,.59s1.92,.95,2.61,1.66c.62,.64,1.11,1.38,1.46,2.21,.36,.83,.54,1.81,.54,2.93s-.17,2.07-.5,2.85c-.33,.79-.81,1.5-1.43,2.14-.38,.4-.83,.76-1.34,1.05-.51,.3-1.08,.54-1.7,.73l5.07,11.13h-3.5Zm.11-17.92c0-1.59-.48-2.74-1.45-3.43-.96-.69-2.19-1.03-3.69-1.03h-6.75v8.89h6.75c.74,0,1.42-.08,2.05-.23,.63-.15,1.18-.41,1.64-.77s.82-.81,1.07-1.37c.25-.56,.37-1.24,.37-2.05Z"/><path d="M439.21,48.72c0,1-.04,1.98-.12,2.94-.08,.96-.24,1.89-.46,2.77-.23,.88-.55,1.72-.98,2.52-.43,.8-.99,1.53-1.68,2.19-.91,.9-1.95,1.58-3.12,2.03-1.18,.45-2.41,.68-3.69,.68s-2.52-.23-3.69-.68c-1.18-.45-2.22-1.13-3.12-2.03-.69-.67-1.25-1.4-1.68-2.19-.43-.8-.76-1.64-.98-2.52-.23-.88-.38-1.8-.46-2.77-.08-.96-.12-1.94-.12-2.94s.04-1.98,.12-2.94c.08-.96,.24-1.89,.46-2.77,.23-.88,.55-1.72,.98-2.52,.43-.8,.99-1.53,1.68-2.19,.9-.9,1.95-1.58,3.12-2.03,1.18-.45,2.41-.68,3.69-.68s2.52,.23,3.69,.68c1.18,.45,2.22,1.13,3.12,2.03,.69,.67,1.25,1.4,1.68,2.19,.43,.8,.75,1.64,.98,2.52,.23,.88,.38,1.8,.46,2.77,.08,.96,.12,1.95,.12,2.94Zm-3.28,0c0-.67-.02-1.37-.05-2.11-.04-.74-.12-1.47-.27-2.19-.14-.73-.36-1.42-.64-2.09-.29-.67-.69-1.27-1.21-1.82-.62-.62-1.33-1.09-2.12-1.41s-1.62-.48-2.48-.48-1.68,.16-2.48,.48c-.8,.32-1.51,.79-2.12,1.41-.52,.55-.93,1.15-1.21,1.82-.29,.67-.5,1.36-.64,2.09-.14,.73-.23,1.46-.27,2.19-.04,.74-.05,1.44-.05,2.11s.02,1.37,.05,2.11c.04,.74,.12,1.47,.27,2.19s.36,1.43,.64,2.11c.29,.68,.69,1.28,1.21,1.8,.62,.62,1.33,1.09,2.12,1.41,.8,.32,1.62,.48,2.48,.48s1.68-.16,2.48-.48,1.5-.79,2.12-1.41c.52-.52,.93-1.12,1.21-1.8,.29-.68,.5-1.38,.64-2.11s.23-1.46,.27-2.19c.04-.74,.05-1.44,.05-2.11Z"/><path d="M469.44,48.68c0,.9-.04,1.82-.12,2.75-.08,.93-.24,1.83-.46,2.69-.23,.87-.55,1.7-.98,2.5-.43,.8-.99,1.53-1.68,2.19-.9,.86-1.93,1.49-3.07,1.91-1.14,.42-2.33,.62-3.57,.62h-8.82v-25.3h8.82c1.24,0,2.43,.21,3.57,.64,1.14,.43,2.17,1.07,3.07,1.93,.69,.67,1.25,1.39,1.68,2.18,.43,.79,.75,1.61,.98,2.48,.23,.87,.38,1.76,.46,2.68,.08,.92,.12,1.83,.12,2.73Zm-3.21,0c0-.67-.02-1.36-.05-2.09-.04-.73-.13-1.43-.29-2.12-.16-.69-.38-1.36-.66-2-.29-.64-.68-1.23-1.18-1.75-.6-.59-1.29-1.03-2.07-1.32s-1.59-.43-2.43-.43h-5.64v19.45h5.64c.83,0,1.64-.14,2.43-.43,.79-.29,1.47-.73,2.07-1.32,.5-.5,.89-1.07,1.18-1.71,.29-.64,.5-1.31,.66-2.02,.15-.7,.25-1.42,.29-2.14,.04-.73,.05-1.43,.05-2.12Z"/><path d="M473.83,61.35v-25.3h16.92v2.93h-13.74v7.71h12.06v3h-12.06v8.74h13.74v2.93h-16.92Z"/><path d="M312.17,97.35v-25.3h3.25v25.3h-3.25Z"/><path d="M338.04,97.35l-12.42-20.34v20.34h-3.07v-25.3h3.57l12.42,20.41v-20.41h3.07v25.3h-3.57Z"/><path d="M364.24,97.35l-12.42-20.34v20.34h-3.07v-25.3h3.57l12.42,20.41v-20.41h3.07v25.3h-3.57Z"/><path d="M393.39,84.72c0,1-.04,1.98-.12,2.94s-.24,1.89-.46,2.77c-.23,.88-.55,1.72-.98,2.52-.43,.8-.99,1.53-1.68,2.19-.91,.9-1.95,1.58-3.12,2.03-1.18,.45-2.41,.68-3.69,.68s-2.52-.23-3.69-.68c-1.18-.45-2.22-1.13-3.12-2.03-.69-.67-1.25-1.4-1.68-2.19-.43-.8-.76-1.64-.98-2.52-.23-.88-.38-1.8-.46-2.77-.08-.96-.12-1.95-.12-2.94s.04-1.98,.12-2.94c.08-.96,.24-1.88,.46-2.77,.23-.88,.55-1.72,.98-2.52,.43-.8,.99-1.53,1.68-2.2,.9-.9,1.95-1.58,3.12-2.03,1.18-.45,2.41-.68,3.69-.68s2.52,.23,3.69,.68c1.18,.45,2.22,1.13,3.12,2.03,.69,.67,1.25,1.4,1.68,2.2,.43,.8,.75,1.64,.98,2.52,.23,.88,.38,1.8,.46,2.77,.08,.96,.12,1.95,.12,2.94Zm-3.28,0c0-.67-.02-1.37-.05-2.11-.04-.74-.12-1.47-.27-2.19s-.36-1.42-.64-2.09c-.29-.67-.69-1.27-1.21-1.82-.62-.62-1.33-1.09-2.12-1.41s-1.62-.48-2.48-.48-1.68,.16-2.48,.48c-.8,.32-1.51,.79-2.12,1.41-.52,.55-.93,1.15-1.21,1.82-.29,.67-.5,1.36-.64,2.09s-.23,1.46-.27,2.19c-.04,.74-.05,1.44-.05,2.11s.02,1.37,.05,2.11c.04,.74,.12,1.47,.27,2.2s.36,1.43,.64,2.11c.29,.68,.69,1.28,1.21,1.8,.62,.62,1.33,1.09,2.12,1.41,.8,.32,1.62,.48,2.48,.48s1.68-.16,2.48-.48,1.5-.79,2.12-1.41c.52-.52,.93-1.12,1.21-1.8,.29-.68,.5-1.38,.64-2.11s.23-1.46,.27-2.2c.04-.74,.05-1.44,.05-2.11Z"/><path d="M406.74,97.35h-3.32l-8.53-25.3h3.28l7,21.38,6.85-21.38h3.25l-8.53,25.3Z"/><path d="M432.76,97.35l-2.07-6h-10.99l-2.03,6h-3.21l8.92-25.3h3.71l8.96,25.3h-3.28Zm-7.6-22.13l-4.46,13.13h8.96l-4.5-13.13Z"/><path d="M456.99,89.29c-.05,1.19-.29,2.27-.73,3.25-.44,.98-1.03,1.84-1.77,2.61-.76,.76-1.74,1.4-2.93,1.93-1.19,.52-2.47,.79-3.85,.79-1.29,0-2.52-.23-3.71-.68-1.19-.45-2.24-1.13-3.14-2.03-.69-.67-1.24-1.4-1.66-2.19-.42-.8-.74-1.64-.96-2.52-.23-.88-.37-1.8-.45-2.77-.07-.96-.11-1.95-.11-2.94s.04-1.98,.11-2.94c.07-.96,.22-1.88,.45-2.77,.23-.88,.55-1.72,.96-2.52,.42-.8,.97-1.53,1.66-2.2,.9-.9,1.95-1.58,3.14-2.03,1.19-.45,2.43-.68,3.71-.68,1.38,0,2.66,.24,3.84,.73,1.18,.49,2.15,1.11,2.91,1.87,.74,.76,1.33,1.62,1.77,2.57,.44,.95,.68,2.02,.73,3.21h-3.28c-.02-.69-.16-1.33-.41-1.93-.25-.59-.58-1.13-.98-1.61-.5-.55-1.14-.99-1.93-1.34-.79-.34-1.67-.52-2.64-.52-.86,0-1.68,.17-2.48,.5-.8,.33-1.5,.81-2.12,1.43-.52,.55-.93,1.15-1.21,1.82-.29,.67-.5,1.36-.64,2.09-.14,.73-.23,1.46-.25,2.19-.02,.74-.04,1.44-.04,2.11s.01,1.37,.04,2.11c.02,.74,.11,1.47,.25,2.2,.14,.73,.36,1.43,.64,2.11,.29,.68,.69,1.28,1.21,1.8,.62,.62,1.33,1.09,2.12,1.43,.8,.33,1.62,.5,2.48,.5,.98,0,1.86-.18,2.66-.55,.8-.37,1.45-.83,1.94-1.37,.4-.48,.73-1.03,.98-1.66,.25-.63,.39-1.29,.41-1.98h3.28Z"/><path d="M461.98,97.35v-25.3h3.25v25.3h-3.25Z"/><path d="M490.82,84.72c0,1-.04,1.98-.12,2.94s-.24,1.89-.46,2.77c-.23,.88-.55,1.72-.98,2.52-.43,.8-.99,1.53-1.68,2.19-.91,.9-1.95,1.58-3.12,2.03-1.18,.45-2.41,.68-3.69,.68s-2.52-.23-3.69-.68c-1.18-.45-2.22-1.13-3.12-2.03-.69-.67-1.25-1.4-1.68-2.19-.43-.8-.76-1.64-.98-2.52-.23-.88-.38-1.8-.46-2.77-.08-.96-.12-1.95-.12-2.94s.04-1.98,.12-2.94c.08-.96,.24-1.88,.46-2.77,.23-.88,.55-1.72,.98-2.52,.43-.8,.99-1.53,1.68-2.2,.9-.9,1.95-1.58,3.12-2.03,1.18-.45,2.41-.68,3.69-.68s2.52,.23,3.69,.68c1.18,.45,2.22,1.13,3.12,2.03,.69,.67,1.25,1.4,1.68,2.2,.43,.8,.75,1.64,.98,2.52,.23,.88,.38,1.8,.46,2.77,.08,.96,.12,1.95,.12,2.94Zm-3.28,0c0-.67-.02-1.37-.05-2.11-.04-.74-.12-1.47-.27-2.19s-.36-1.42-.64-2.09c-.29-.67-.69-1.27-1.21-1.82-.62-.62-1.33-1.09-2.12-1.41s-1.62-.48-2.48-.48-1.68,.16-2.48,.48c-.8,.32-1.51,.79-2.12,1.41-.52,.55-.93,1.15-1.21,1.82-.29,.67-.5,1.36-.64,2.09s-.23,1.46-.27,2.19c-.04,.74-.05,1.44-.05,2.11s.02,1.37,.05,2.11c.04,.74,.12,1.47,.27,2.2s.36,1.43,.64,2.11c.29,.68,.69,1.28,1.21,1.8,.62,.62,1.33,1.09,2.12,1.41,.8,.32,1.62,.48,2.48,.48s1.68-.16,2.48-.48,1.5-.79,2.12-1.41c.52-.52,.93-1.12,1.21-1.8,.29-.68,.5-1.38,.64-2.11s.23-1.46,.27-2.2c.04-.74,.05-1.44,.05-2.11Zm-9.56-14.45l-1.07-1.68,6.07-4.39,1.61,2.53-6.6,3.53Z"/><path d="M511.77,97.35l-12.42-20.34v20.34h-3.07v-25.3h3.57l12.42,20.41v-20.41h3.07v25.3h-3.57Z"/></g></g></svg>