<?xml version="1.0" encoding="utf-8"?>
<!-- Generator: Adobe Illustrator 15.1.0, SVG Export Plug-In . SVG Version: 6.00 Build 0)  -->
<!DOCTYPE svg PUBLIC "-//W3C//DTD SVG 1.1//EN" "http://www.w3.org/Graphics/SVG/1.1/DTD/svg11.dtd">
<svg version="1.1" id="Layer_1" xmlns="http://www.w3.org/2000/svg" xmlns:xlink="http://www.w3.org/1999/xlink" x="0px" y="0px"
	 width="510px" height="510px" viewBox="0 0 510 510" enable-background="new 0 0 510 510" xml:space="preserve">
<path d="M459,0H51C22.95,0,0,22.95,0,51v408c0,28.05,22.95,51,51,51h408c28.05,0,51-22.95,51-51V51C510,22.95,487.05,0,459,0z
	 M418.2,137.7h-35.7c-22.95,0-25.5,7.649-25.5,25.5v33.149h53.55L408,255h-48.45v178.5h-81.6V255H247.35v-61.2h30.602v-38.25
	c0-51,20.398-79.05,79.05-79.05h61.2L418.2,137.7L418.2,137.7z"/>
</svg>
