<?xml version="1.0" encoding="utf-8"?>
<!-- Generator: Adobe Illustrator 15.1.0, SVG Export Plug-In . SVG Version: 6.00 Build 0)  -->
<!DOCTYPE svg PUBLIC "-//W3C//DTD SVG 1.1//EN" "http://www.w3.org/Graphics/SVG/1.1/DTD/svg11.dtd">
<svg version="1.1" id="mdi-linkedin" xmlns="http://www.w3.org/2000/svg" xmlns:xlink="http://www.w3.org/1999/xlink" x="0px"
	 y="0px" width="18px" height="18px" viewBox="0 0 18 18" enable-background="new 0 0 18 18" xml:space="preserve">
<path d="M16,0c1.104,0,2,0.896,2,2v14c0,1.104-0.896,2-2,2H2c-1.104,0-2-0.896-2-2V2c0-1.104,0.896-2,2-2H16 M15.5,15.5v-5.3
	c0-1.802-1.459-3.261-3.26-3.261l0,0c-0.85,0-1.84,0.521-2.32,1.301V7.13H7.13v8.37h2.79v-4.93c0-0.771,0.62-1.4,1.391-1.4
	c0.772,0,1.399,0.627,1.399,1.4v4.93H15.5 M3.88,5.56c0.928,0,1.68-0.752,1.68-1.68l0,0c0-0.93-0.75-1.69-1.68-1.69
	c-0.933,0-1.69,0.757-1.69,1.69l0,0C2.19,4.81,2.95,5.56,3.88,5.56 M5.27,15.5V7.13H2.5v8.37H5.27z"/>
</svg>
