<?xml version="1.0" encoding="utf-8"?>
<!-- Generator: Adobe Illustrator 15.1.0, SVG Export Plug-In . SVG Version: 6.00 Build 0)  -->
<!DOCTYPE svg PUBLIC "-//W3C//DTD SVG 1.1//EN" "http://www.w3.org/Graphics/SVG/1.1/DTD/svg11.dtd">
<svg version="1.1" id="Capa_1" xmlns="http://www.w3.org/2000/svg" xmlns:xlink="http://www.w3.org/1999/xlink" x="0px" y="0px"
	 width="455.113px" height="141.857px" viewBox="0 0 455.113 141.857" enable-background="new 0 0 455.113 141.857"
	 xml:space="preserve">
<rect x="37.971" y="86.338" width="9.543" height="54.682"/>
<polygon points="74.855,140.931 84.026,140.931 84.026,105.367 122.641,141.78 122.641,86.248 113.491,86.248 113.491,121.211 
	74.855,85.407 "/>
<g>
	<defs>
		<rect id="SVGID_1_" width="455.113" height="141.857"/>
	</defs>
	<clipPath id="SVGID_2_">
		<use xlink:href="#SVGID_1_"  overflow="visible"/>
	</clipPath>
	<path clip-path="url(#SVGID_2_)" d="M147.153,127.341c5.109,4.011,11.251,6.33,17.825,6.33c6.406,0,10.908-2.224,10.908-7.128
		c0-4.279-2.873-5.954-7.891-7.83l-8.122-2.849c-7.499-2.68-13.196-6.597-13.196-15.594c0-9.629,8.626-14.863,18.941-14.863
		c6.322,0,12.08,1.6,16.581,4.437v9.545c-4.677-3.48-9.799-5.878-16.381-5.878c-5.661,0-9.894,2.131-9.894,6.568
		c0,4.019,2.656,5.62,7.334,7.233l9.059,3.205c8.774,3.105,12.803,7.929,12.803,15.854c0,9.979-8.71,15.486-20.142,15.486
		c-7.51,0-13.892-2.118-17.825-4.785V127.341z"/>
</g>
<rect x="209.815" y="86.342" width="9.535" height="54.682"/>
<g>
	<defs>
		<rect id="SVGID_3_" width="455.113" height="141.857"/>
	</defs>
	<clipPath id="SVGID_4_">
		<use xlink:href="#SVGID_3_"  overflow="visible"/>
	</clipPath>
	<path clip-path="url(#SVGID_4_)" d="M268.4,132.744c11.793,0,18.098-7.403,18.098-19.081c0-11.762-6.305-19.138-18.098-19.138
		h-11.66v38.219H268.4z M247.227,86.339h21.53c16.577,0,27.297,10.683,27.297,27.324c0,16.664-10.72,27.358-27.297,27.358h-21.53
		V86.339z"/>
</g>
<polygon points="350.25,86.339 350.25,94.528 325.525,94.528 325.525,107.686 347.7,107.686 347.7,115.781 325.525,115.781 
	325.525,132.744 350.25,132.744 350.25,141.021 316.191,141.021 316.191,86.339 "/>
<g>
	<defs>
		<rect id="SVGID_5_" width="455.113" height="141.857"/>
	</defs>
	<clipPath id="SVGID_6_">
		<use xlink:href="#SVGID_5_"  overflow="visible"/>
	</clipPath>
	<path clip-path="url(#SVGID_6_)" d="M388.237,111.101h10.679c6.322,0,9.887-3.304,9.887-8.367c0-5.07-3.564-8.375-9.887-8.375
		h-10.679V111.101z M388.237,118.837v22.182h-9.499V86.341h20.357c11.612,0,19.122,5.684,19.122,16.393
		c0,9.149-4.169,14.41-13.052,15.755l20.202,22.53h-10.808l-19.558-22.182H388.237z"/>
	<path clip-path="url(#SVGID_6_)" d="M31.578,27.543c4.145-1.435,7.366-5.731,7.366-11.649c0-9.853-7.366-14.962-19.15-14.962H0
		v55.018h21.635c11.783,0,19.15-5.466,19.15-15.771C40.785,34.353,36.92,29.247,31.578,27.543 M9.303,24.053V9h10.399
		c6.538,0,10.036,2.239,10.036,7.436s-3.498,7.617-10.036,7.617H9.303z M9.303,31.755h12.148c6.446,0,9.943,3.045,9.943,8.067
		c0,4.924-3.497,8.06-9.943,8.06H9.303V31.755z M83.978,56.842c13.532,0,22.647-7.702,22.647-22.759V0.932h-9.579v32.077
		c0,10.575-4.598,15.505-13.068,15.505c-8.471,0-13.076-4.93-13.076-15.505V0.932h-9.575v33.064
		C61.327,49.14,70.534,56.842,83.978,56.842 M129.171,52.005c3.957,2.687,10.404,4.837,17.954,4.837
		c11.507,0,20.254-5.557,20.254-15.588c0-7.976-4.054-12.812-12.892-15.947l-9.115-3.226c-4.693-1.618-7.362-3.229-7.362-7.256
		c0-4.483,4.233-6.634,9.943-6.634c6.63,0,11.784,2.418,16.477,5.913V4.517c-4.509-2.863-10.311-4.479-16.661-4.479
		c-10.403,0-19.058,5.286-19.058,14.964c0,9.051,5.706,12.991,13.256,15.68l8.195,2.867c5.061,1.881,7.918,3.582,7.918,7.885
		c0,4.927-4.513,7.166-10.955,7.166c-6.63,0-12.8-2.329-17.954-6.364V52.005z M201.589,0.932h-9.575v55.015h9.575V0.932z
		 M228.905,55.876h9.223V20.087l38.831,36.641V0.85h-9.198v35.182l-38.856-36.03V55.876z M336.79,0.942v8.245h-24.855v13.238h22.294
		v8.144h-22.294v17.065h24.855v8.327h-34.239V0.942H336.79z M359.085,51.967c3.957,2.688,10.401,4.839,17.948,4.839
		c11.512,0,20.255-5.551,20.255-15.59c0-7.974-4.05-12.812-12.889-15.951l-9.114-3.226c-4.693-1.607-7.366-3.223-7.366-7.254
		c0-4.483,4.236-6.63,9.942-6.63c6.631,0,11.788,2.416,16.481,5.912V4.484c-4.509-2.873-10.312-4.483-16.665-4.483
		c-10.403,0-19.058,5.285-19.058,14.965c0,9.046,5.71,12.992,13.26,15.679l8.194,2.864c5.062,1.885,7.914,3.59,7.914,7.883
		c0,4.929-4.509,7.17-10.955,7.17c-6.626,0-12.796-2.327-17.948-6.358V51.967z M416.905,51.967
		c3.957,2.688,10.403,4.839,17.953,4.839c11.509,0,20.255-5.551,20.255-15.59c0-7.974-4.054-12.812-12.888-15.951l-9.115-3.226
		c-4.702-1.607-7.365-3.223-7.365-7.254c0-4.483,4.232-6.63,9.942-6.63c6.629,0,11.783,2.416,16.481,5.912V4.484
		c-4.515-2.873-10.312-4.483-16.666-4.483c-10.403,0-19.058,5.285-19.058,14.965c0,9.046,5.709,12.992,13.257,15.679l8.193,2.864
		c5.066,1.885,7.918,3.59,7.918,7.883c0,4.929-4.509,7.17-10.955,7.17c-6.63,0-12.795-2.327-17.953-6.358V51.967z"/>
</g>
</svg>
