<svg version="1.0" xmlns="http://www.w3.org/2000/svg" width="200.000000pt" height="200.000000pt" viewBox="0 0 200.000000 200.000000" preserveAspectRatio="xMidYMid meet" style="fill: #616161;
">
           
           <g transform="translate(0.000000,200.000000) scale(0.100000,-0.100000)" fill="#000000" stroke="none" style="
  fill: #616161;
">
           <path d="M862 1478 c-9 -9 -12 -75 -12 -234 0 -216 1 -223 20 -229 45 -14 50
           5 50 196 0 99 3 179 7 179 5 0 56 -16 115 -36 l108 -36 2 -211 3 -212 30 0 30
           0 0 240 0 240 -165 57 c-192 66 -173 61 -188 46z"></path>
           <path d="M654 1081 c-127 -58 -135 -232 -13 -300 31 -18 54 -21 145 -21 l107
           0 -20 -22 c-11 -13 -23 -29 -27 -35 -10 -18 12 -53 32 -53 22 0 142 120 142
           142 0 19 -119 148 -137 148 -13 0 -43 -27 -43 -40 0 -5 12 -23 27 -40 l26 -32
           -107 4 c-104 3 -109 4 -132 31 -54 63 -10 157 73 157 44 0 63 14 63 46 0 39
           -67 46 -136 15z"></path>
           <path d="M1282 1088 c-27 -27 -6 -68 36 -68 31 0 82 -52 82 -84 0 -14 -5 -37
           -12 -51 -20 -45 -55 -55 -187 -55 -105 0 -122 -2 -130 -18 -6 -11 -6 -24 0
           -35 9 -15 28 -17 145 -17 96 0 143 4 162 14 92 48 123 163 67 247 -39 59 -132
           98 -163 67z"></path>
           <path d="M1167 689 c-11 -7 -17 -22 -17 -48 0 -44 11 -41 -183 -62 -85 -9
           -110 -16 -117 -30 -11 -20 -4 -45 14 -52 13 -5 320 29 343 38 9 3 13 27 13 74
           0 57 -3 72 -18 80 -11 6 -24 6 -35 0z"></path>
           </g>
           </svg>