<svg xmlns="http://www.w3.org/2000/svg" viewBox="0 0 142.27 126.16"><defs><style>.cls-1{fill:#f193a1;}</style></defs><g id="Capa_2" data-name="Capa 2"><g id="Iconos_creados_-_conjunto_simple" data-name="Iconos creados - conjunto simple"><path class="cls-1" d="M89.63,5.63C86.26,1.63,80,0,68.17,0H25.09C12.94,0,6.62,1.74,3.27,6S0,16.27,0,24.74V40.89C0,57.3,3.88,65.63,25.09,65.63H68.17c10.3,0,16-1.44,19.69-5s5.4-9.53,5.4-19.77V24.74C93.26,15.81,93,9.65,89.63,5.63ZM59.87,35.05,40.31,45.27a3,3,0,0,1-1.4.34,3,3,0,0,1-1.55-.43,3,3,0,0,1-1.45-2.57V22.22a3,3,0,0,1,4.39-2.67L59.87,29.71a3,3,0,0,1,0,5.34Z"/><path class="cls-1" d="M142.27,68.19V84.34c0,10.13-1.58,16-5.28,19.65v20a2.15,2.15,0,0,1-3.74,1.46l-14.8-16.16a1.3,1.3,0,0,1-.18-.23H74.1C52.89,109.08,49,100.75,49,84.34V71.08H68.15c12.6,0,19.58-1.77,24.1-6.09,4.3-4.11,6.31-10.63,6.58-21.54h18.36c11.87,0,18.08,1.63,21.45,5.63S142.27,59.26,142.27,68.19ZM125.56,81.7a3.46,3.46,0,0,0-3.46-3.46H69.25a3.46,3.46,0,0,0,0,6.92H122.1A3.46,3.46,0,0,0,125.56,81.7Zm0,13.67a3.46,3.46,0,0,0-3.46-3.46H110a3.46,3.46,0,1,0,0,6.92H122.1A3.46,3.46,0,0,0,125.56,95.37Zm-24,0a3.46,3.46,0,0,0-3.46-3.46H69.25a3.46,3.46,0,1,0,0,6.92H98.09A3.46,3.46,0,0,0,101.55,95.37Z"/></g></g></svg>