<svg xmlns="http://www.w3.org/2000/svg" viewBox="0 0 141.73 162.19"><defs><style>.cls-1{fill:silver;}</style></defs><g id="Capa_2" data-name="Capa 2"><g id="Iconos_creados_-_conjunto_simple" data-name="Iconos creados - conjunto simple"><path class="cls-1" d="M98.23,114.77c0-.14-4.85-13.39-6.54-17.21-1.19-2.72-4.51-5-8.06-5.48a201.85,201.85,0,0,0-25.57-1.29V82.18a209.09,209.09,0,0,1,26.79,1.38c6.54.94,12.32,5.07,14.72,10.52,1.8,4.09,6.55,17.2,6.76,17.76Z"/><path class="cls-1" d="M17.89,114.77l-8.1-2.93c.2-.56,5-13.67,6.76-17.76,2.4-5.45,8.18-9.58,14.72-10.52a209.09,209.09,0,0,1,26.79-1.38v8.61a201.85,201.85,0,0,0-25.57,1.29c-3.55.51-6.87,2.76-8.06,5.48C22.74,101.38,17.94,114.63,17.89,114.77Z"/><path class="cls-1" d="M22.16,110.43A18.74,18.74,0,0,0,14.65,112l.16-3a2.8,2.8,0,0,0-2.64-3.06H2.65a2.83,2.83,0,0,0-2.59,3.5l1.44,7.26a2.71,2.71,0,0,0,2.58,2.28H6.2a23.32,23.32,0,0,0-4.31,13.63,23.07,23.07,0,0,0,6.16,15.88V159A3.06,3.06,0,0,0,11,162.19H22.36A3.06,3.06,0,0,0,25.28,159v-4.32H58.1V110.43Zm3.12,31a8.89,8.89,0,1,1,8.88-8.89A8.89,8.89,0,0,1,25.28,141.45Z"/><path class="cls-1" d="M113.55,105.89H104a2.79,2.79,0,0,0-2.64,3.06l.16,3A18.74,18.74,0,0,0,94,110.43H58.1v44.26H90.92V159a3.06,3.06,0,0,0,2.92,3.18h11.39a3.06,3.06,0,0,0,2.92-3.18V148.44a23.07,23.07,0,0,0,6.16-15.88A23.32,23.32,0,0,0,110,118.93h2.12a2.71,2.71,0,0,0,2.58-2.28l1.44-7.26A2.84,2.84,0,0,0,113.55,105.89ZM90.92,141.45a8.89,8.89,0,1,1,8.89-8.89A8.88,8.88,0,0,1,90.92,141.45Z"/><path class="cls-1" d="M139.61,100.4a7.25,7.25,0,0,1-10.27,0L94.19,65.25A35.48,35.48,0,1,1,104.46,55l35.15,35.15A7.26,7.26,0,0,1,139.61,100.4ZM74.73,11.6A23.93,23.93,0,1,0,98.66,35.53,23.93,23.93,0,0,0,74.73,11.6Z"/></g></g></svg>