<svg xmlns="http://www.w3.org/2000/svg" viewBox="0 0 149.55 162.19"><defs><style>.cls-1{fill:silver;}</style></defs><g id="Capa_2" data-name="Capa 2"><g id="Iconos_creados_-_conjunto_simple" data-name="Iconos creados - conjunto simple"><circle class="cls-1" cx="97.95" cy="51.59" r="11.17"/><path class="cls-1" d="M98,63.76a12.17,12.17,0,1,1,8.61-3.56h0A12.1,12.1,0,0,1,98,63.76Zm0-22.34a10.18,10.18,0,1,0,7.2,3A10.11,10.11,0,0,0,98,41.42Z"/><path class="cls-1" d="M82.81,34.9a1.64,1.64,0,0,1-.21-.25A2.19,2.19,0,0,1,83,31.58,25,25,0,0,1,118,66.5a2.2,2.2,0,1,1-3.52-2.63A20.56,20.56,0,0,0,85.68,35.1,2.2,2.2,0,0,1,82.81,34.9Z"/><path class="cls-1" d="M116.2,68.39a3.21,3.21,0,0,1-2.56-5.12A19.56,19.56,0,0,0,86.27,35.9a3.2,3.2,0,0,1-4.17-.3h0a2.43,2.43,0,0,1-.3-.34,3.21,3.21,0,0,1,.65-4.49A26,26,0,0,1,118.77,67.1,3.21,3.21,0,0,1,116.2,68.39ZM97.92,30.06a21.53,21.53,0,0,1,17.33,34.41,1.2,1.2,0,1,0,1.92,1.43A24,24,0,0,0,83.64,32.38a1.2,1.2,0,0,0-.24,1.68l.11.13h0a1.21,1.21,0,0,0,1.57.11A21.42,21.42,0,0,1,97.92,30.06Z"/><path class="cls-1" d="M127.73,68.59a2.2,2.2,0,0,1-.41-2.52A32.74,32.74,0,0,0,83.48,22.23a2.2,2.2,0,0,1-1.94-3.95A37.13,37.13,0,0,1,131.26,68a2.19,2.19,0,0,1-2.94,1A2.26,2.26,0,0,1,127.73,68.59Z"/><path class="cls-1" d="M129.29,70.24a3.2,3.2,0,0,1-1.41-.33,3.07,3.07,0,0,1-.85-.61h0a3.2,3.2,0,0,1-.61-3.68,31.73,31.73,0,0,0-42.5-42.49,3.2,3.2,0,0,1-2.83-5.74,38.13,38.13,0,0,1,51.07,51.06A3.2,3.2,0,0,1,129.29,70.24Zm-.85-2.35a1,1,0,0,0,.32.22,1.2,1.2,0,0,0,1.61-.54A36.14,36.14,0,0,0,82,19.18,1.2,1.2,0,1,0,83,21.33a33.74,33.74,0,0,1,45.17,45.18,1.22,1.22,0,0,0,.23,1.38Z"/><path class="cls-1" d="M141.56,70.55a2.18,2.18,0,0,1-.49-2.34A46.21,46.21,0,0,0,81.34,8.48a2.2,2.2,0,0,1-1.58-4.11,50.6,50.6,0,0,1,65.41,65.42,2.2,2.2,0,0,1-2.84,1.26A2.23,2.23,0,0,1,141.56,70.55Z"/><path class="cls-1" d="M143.12,72.2A3.05,3.05,0,0,1,142,72a3.13,3.13,0,0,1-1.11-.72h0a3.19,3.19,0,0,1-.73-3.41A45.2,45.2,0,0,0,81.7,9.41a3.16,3.16,0,0,1-2.45-.06,3.18,3.18,0,0,1-1.62-4.22A3.16,3.16,0,0,1,79.4,3.44a51.6,51.6,0,0,1,66.71,66.7,3.21,3.21,0,0,1-1.69,1.78A3.31,3.31,0,0,1,143.12,72.2ZM97.93,4.4A47.19,47.19,0,0,1,142,68.56a1.23,1.23,0,0,0,.27,1.29h0a1.51,1.51,0,0,0,.42.27,1.22,1.22,0,0,0,.92,0,1.2,1.2,0,0,0,.63-.66A49.6,49.6,0,0,0,80.12,5.31a1.19,1.19,0,0,0-.67.63,1.22,1.22,0,0,0,0,.92,1.2,1.2,0,0,0,.63.66,1.22,1.22,0,0,0,.92,0A47.15,47.15,0,0,1,97.93,4.4Z"/><path class="cls-1" d="M120.73,92A11.33,11.33,0,0,0,109.4,80.63H11.33A11.33,11.33,0,0,0,0,92v9.45H120.73Z"/><path class="cls-1" d="M80.46,115.47a24.17,24.17,0,0,1-20.09,37.59,24.19,24.19,0,0,1-20.1-37.59H0v35.39a11.33,11.33,0,0,0,11.33,11.33H109.4a11.33,11.33,0,0,0,11.33-11.33V115.47Z"/><path class="cls-1" d="M68.58,143.6a23.65,23.65,0,0,1-3,.69,17.53,17.53,0,0,1-2.74.24,15.16,15.16,0,0,1-6.17-1.19A12.44,12.44,0,0,1,52.2,140a14,14,0,0,1-2.71-4.94.65.65,0,0,1,0-.13H45l-.53-4.24h4.17c0-.55-.07-1.1-.07-1.67s0-1.22.08-1.81H45L44.48,123h5c0-.08,0-.16.08-.24a14.37,14.37,0,0,1,2.93-5,13.12,13.12,0,0,1,4.56-3.26,14.9,14.9,0,0,1,6-1.15,16.53,16.53,0,0,1,2.21.2,22.39,22.39,0,0,1,2.86.62A14.26,14.26,0,0,1,71,115.24l-1.77,4.06c-.88-.26-1.64-.48-2.27-.64s-1.25-.29-1.85-.4a14,14,0,0,0-2.23-.15,7.14,7.14,0,0,0-4.28,1.34A9.19,9.19,0,0,0,55.77,123h8.38l.44,4.28h-10c0,.56-.08,1.15-.08,1.76a16.09,16.09,0,0,0,.09,1.72h9.52l.44,4.24h-8.9a11.08,11.08,0,0,0,.87,1.59,7.5,7.5,0,0,0,2.54,2.35,6.68,6.68,0,0,0,3.37.86,14.35,14.35,0,0,0,3.55-.41,29.38,29.38,0,0,0,3.07-.95l2.16,4.19A17.53,17.53,0,0,1,68.58,143.6Z"/></g></g></svg>