<svg xmlns="http://www.w3.org/2000/svg" viewBox="0 0 140.48 146.79"><defs><style>.cls-1{fill:#de0222;}</style></defs><g id="Capa_2" data-name="Capa 2"><g id="Iconos_creados_-_conjunto_simple" data-name="Iconos creados - conjunto simple"><path class="cls-1" d="M30.32,146.79H62.17a3.93,3.93,0,0,0,3.93-3.93V109.62c0-7-.22-11.12-7.42-18.32S39.39,72.19,39.39,72.19a8.51,8.51,0,0,0-12,12L43,99.88a3.92,3.92,0,0,1-5.55,5.55s-11.83-11.62-15.21-15a17.47,17.47,0,0,1-5.7-13.58c0-6.48.46-37.24.46-37.24a8.51,8.51,0,1,0-17,0V86.5C0,97,0,99,6.54,105.48s19,18.32,19,18.32v19.06a3.93,3.93,0,0,0,3.93,3.93Z"/><path class="cls-1" d="M110.16,146.79H78.31a3.93,3.93,0,0,1-3.93-3.93V109.62c0-7,.22-11.12,7.42-18.32s19.29-19.11,19.29-19.11a8.51,8.51,0,0,1,12,12L97.47,99.88a3.92,3.92,0,0,0,5.55,5.55s11.83-11.62,15.21-15a17.47,17.47,0,0,0,5.7-13.58c0-6.48-.46-37.24-.46-37.24a8.51,8.51,0,1,1,17,0V86.5c0,10.47,0,12.45-6.54,19s-19,18.32-19,18.32v19.06a3.93,3.93,0,0,1-3.93,3.93Z"/><path class="cls-1" d="M90.24,8.29A27.37,27.37,0,0,0,70.24,0a27.37,27.37,0,0,0-20,8.29,27.37,27.37,0,0,0-8.29,20,27.37,27.37,0,0,0,8.29,20,27.37,27.37,0,0,0,20,8.29,27.37,27.37,0,0,0,20-8.29,27.37,27.37,0,0,0,8.29-20A27.37,27.37,0,0,0,90.24,8.29ZM79,43a24.17,24.17,0,0,1-3,.68,17.43,17.43,0,0,1-2.74.24,15,15,0,0,1-6.17-1.19,12.47,12.47,0,0,1-4.5-3.3,14.3,14.3,0,0,1-2.71-4.94s0-.09,0-.14H55.38l-.53-4.23H59C59,29.55,59,29,59,28.42s0-1.21.08-1.8H55.38l-.53-4.28h5a2.33,2.33,0,0,1,.07-.25,14.58,14.58,0,0,1,2.93-5,13.22,13.22,0,0,1,4.57-3.27,15,15,0,0,1,8.2-.94,24.27,24.27,0,0,1,2.87.61,14,14,0,0,1,2.82,1.13L79.6,18.68c-.89-.27-1.64-.48-2.28-.64s-1.25-.3-1.85-.4a13.86,13.86,0,0,0-2.23-.15A7,7,0,0,0,69,18.83a9.22,9.22,0,0,0-2.83,3.51h8.38L75,26.62H65a16.58,16.58,0,0,0-.09,1.76A16.09,16.09,0,0,0,65,30.1h9.52L75,34.33h-8.9a9.39,9.39,0,0,0,.88,1.59,7.41,7.41,0,0,0,2.53,2.36,6.8,6.8,0,0,0,3.38.86,14.39,14.39,0,0,0,3.55-.42,27.63,27.63,0,0,0,3.06-.95L81.62,42A17.79,17.79,0,0,1,79,43Z"/></g></g></svg>