<svg height="32" viewBox="0 0 103 32" width="103" xmlns="http://www.w3.org/2000/svg"><path d="m7.984 32h2.396v-12.8h-2.396zm8.783-.192h2.146v-8.076l9.033 8.268v-12.608h-2.14v7.938l-9.039-8.13zm16.078-3.1c1.168.91 2.57 1.436 4.073 1.436 1.464 0 2.491-.504 2.491-1.617 0-.97-.655-1.35-1.802-1.775l-1.857-.645c-1.712-.608-3.014-1.496-3.014-3.537 0-2.183 1.971-3.37 4.328-3.37 1.444 0 2.76.363 3.788 1.006v2.165c-1.069-.79-2.239-1.334-3.742-1.334-1.294 0-2.261.483-2.261 1.49 0 .91.607 1.274 1.676 1.64l2.069.726c2.005.705 2.925 1.798 2.925 3.596 0 2.262-1.99 3.511-4.601 3.511-1.716 0-3.175-.48-4.073-1.086zm14.264 3.292h2.395v-12.8h-2.395zm13.631-1.937c2.7 0 4.143-1.732 4.143-4.466 0-2.754-1.444-4.48-4.143-4.48h-2.67v8.946zm-4.85-10.863h4.93c3.795 0 6.249 2.5 6.249 6.397 0 3.9-2.454 6.403-6.249 6.403h-4.93zm23.157 0v1.917h-5.797v3.08h5.199v1.895h-5.2v3.971h5.798v1.937h-7.985v-12.8zm8.502 5.796h2.377c1.407 0 2.2-.772 2.2-1.959s-.793-1.96-2.2-1.96h-2.377v3.92zm0 1.81v5.194h-2.115v-12.8h4.532c2.584 0 4.256 1.331 4.256 3.837 0 2.143-.928 3.374-2.905 3.69l4.497 5.273h-2.406l-4.354-5.193h-1.504zm-80.402-20.216c.937-.343 1.667-1.372 1.667-2.787 0-2.358-1.667-3.58-4.334-3.58h-4.48v13.163h4.896c2.667 0 4.334-1.308 4.334-3.773 0-1.394-.875-2.616-2.083-3.023zm-5.043-.836v-3.601h2.356c1.48 0 2.271.536 2.271 1.779s-.792 1.822-2.271 1.822zm0 1.844h2.75c1.46 0 2.251.728 2.251 1.929 0 1.179-.792 1.93-2.25 1.93h-2.75v-3.86zm16.901 6.002c3.063 0 5.126-1.844 5.126-5.445v-7.932h-2.167v7.674c0 2.53-1.042 3.71-2.959 3.71s-2.958-1.18-2.958-3.71v-7.674h-2.167v7.91c0 3.623 2.083 5.467 5.125 5.467zm10.228-1.158c.896.644 2.355 1.158 4.063 1.158 2.605 0 4.584-1.33 4.584-3.73 0-1.908-.916-3.066-2.917-3.816l-2.062-.772c-1.063-.385-1.667-.771-1.667-1.736 0-1.072.958-1.586 2.25-1.586 1.5 0 2.667.578 3.73 1.415v-2.295c-1.021-.685-2.334-1.071-3.772-1.071-2.354 0-4.313 1.265-4.313 3.58 0 2.165 1.292 3.108 3 3.751l1.855.686c1.146.45 1.792.858 1.792 1.887 0 1.179-1.021 1.715-2.48 1.715-1.5 0-2.896-.558-4.063-1.522zm16.39-12.219h-2.166v13.162h2.166zm6.182 13.146h2.088v-8.563l8.788 8.767v-13.37h-2.082v8.417l-8.794-8.62zm24.417-13.143v1.971h-5.626v3.168h5.045v1.949h-5.045v4.083h5.626v1.992h-7.75v-13.163zm5.045 12.207c.896.644 2.354 1.158 4.063 1.158 2.604 0 4.584-1.329 4.584-3.73 0-1.908-.917-3.065-2.917-3.816l-2.063-.771c-1.063-.386-1.667-.772-1.667-1.737 0-1.072.958-1.586 2.25-1.586 1.5 0 2.667.579 3.73 1.415v-2.294c-1.021-.686-2.334-1.072-3.772-1.072-2.354 0-4.313 1.265-4.313 3.58 0 2.165 1.292 3.108 3 3.751l1.855.686c1.146.45 1.792.858 1.792 1.887 0 1.179-1.02 1.715-2.48 1.715-1.5 0-2.896-.557-4.062-1.522zm13.086 0c.896.644 2.355 1.158 4.063 1.158 2.605 0 4.584-1.329 4.584-3.73 0-1.908-.917-3.065-2.917-3.816l-2.063-.771c-1.062-.386-1.667-.772-1.667-1.737 0-1.072.959-1.586 2.25-1.586 1.5 0 2.668.579 3.73 1.415v-2.294c-1.02-.686-2.333-1.072-3.771-1.072-2.355 0-4.313 1.265-4.313 3.58 0 2.165 1.292 3.108 3 3.751l1.855.686c1.146.45 1.792.858 1.792 1.887 0 1.179-1.021 1.715-2.48 1.715-1.5 0-2.896-.557-4.063-1.522z" fill="#111" fill-rule="evenodd"/></svg>