<?xml version="1.0" encoding="utf-8"?>
<!-- Generator: Adobe Illustrator 15.1.0, SVG Export Plug-In . SVG Version: 6.00 Build 0)  -->
<!DOCTYPE svg PUBLIC "-//W3C//DTD SVG 1.1//EN" "http://www.w3.org/Graphics/SVG/1.1/DTD/svg11.dtd">
<svg version="1.1" id="Layer_1" xmlns="http://www.w3.org/2000/svg" xmlns:xlink="http://www.w3.org/1999/xlink" x="0px" y="0px"
	 width="566.604px" height="600.812px" viewBox="0 0 566.604 600.812" enable-background="new 0 0 566.604 600.812"
	 xml:space="preserve">
<g>
	<path fill="none" stroke="#F31000" stroke-width="6" stroke-linecap="round" stroke-linejoin="round" stroke-miterlimit="10" d="
		M563.604,330.139v197.863c0,38.057-30.848,68.908-68.907,68.908H71.905C33.846,596.908,3,566.057,3,528.002v-422.79
		c0-38.053,30.846-68.906,68.905-68.906h422.791c38.061,0,68.907,30.851,68.907,68.906V330.139L563.604,330.139z"/>
	
		<line fill="none" stroke="#F31000" stroke-width="6" stroke-linecap="round" stroke-linejoin="round" stroke-miterlimit="10" x1="3" y1="153.103" x2="563.604" y2="153.103"/>
	<g>
		
			<line fill="none" stroke="#F31000" stroke-width="6" stroke-linecap="round" stroke-linejoin="round" stroke-miterlimit="10" x1="157.161" y1="2.097" x2="157.161" y2="70.52"/>
		
			<line fill="none" stroke="#F31000" stroke-width="6" stroke-linecap="round" stroke-linejoin="round" stroke-miterlimit="10" x1="409.443" y1="2.097" x2="409.443" y2="70.52"/>
	</g>
</g>
<g>
	<g>
		<path d="M256.503,432.271v10.267H110.479v-5.939c111.238-110.159,123.114-130.5,123.114-163.333
			c0-29.697-20.874-49.721-52.351-49.721c-31.988,0-54.05,20.618-54.05,49.806v6.195h-10.607v-6.195
			c0-35.977,27.239-60.074,64.657-60.074c37.419,0,63.041,24.351,63.041,59.99c0,34.257-12.233,56.725-114.786,159.007h127.007
			V432.271z"/>
	</g>
	<g>
		<path d="M456.125,391.284H427.7v51.253h-10.438v-51.252H295.421v-4.75l84.088-170.97h11.201l-81.42,165.963h107.979v-83.66h10.435
			v83.662h28.425v9.754H456.125z"/>
	</g>
</g>
<g>
	<path d="M139.08,489.564v46.16h-3.91l-27.77-38.049v38.049h-4.53v-46.16h4.189l27.493,37.732v-37.732H139.08z"/>
	<path d="M148.171,517.922c0-10.713,8.053-18.561,18.768-18.561c10.735,0,18.767,7.914,18.767,18.561
		c0,10.643-8.032,18.557-18.767,18.557C156.224,536.479,148.171,528.564,148.171,517.922z M181.133,517.922
		c0-8.203-5.996-14.215-14.192-14.215c-8.199,0-14.192,5.994-14.192,14.215c0,8.193,6.014,14.209,14.192,14.209
		C175.137,532.131,181.133,526.115,181.133,517.922z"/>
	<path d="M223.894,500.115l-15.281,35.609h-4.035l-15.656-35.609h4.689l12.977,29.723l12.71-29.723H223.894z"/>
	<path d="M230.848,487.844h5.117v5.543h-5.117V487.844z M231.163,500.115h4.484v35.609h-4.484V500.115z"/>
	<path d="M280.322,519.604h-31.302c0.723,7.418,6.177,12.484,13.587,12.484c5.363,0,9.662-2.615,12.067-6.994h4.737
		c-3.127,7.25-9.221,11.385-16.804,11.385c-10.274,0-18.062-7.98-18.062-18.578c0-10.559,7.788-18.539,18.062-18.539
		c10.625,0,17.807,8.217,17.807,18.578C280.414,518.488,280.366,519.055,280.322,519.604z M262.607,503.615
		c-7.162,0-12.494,4.785-13.5,11.826h26.849C274.94,508.23,269.578,503.615,262.607,503.615L262.607,503.615z"/>
	<path d="M340.698,513.047v22.678h-4.467l-0.021-21.338c0-6.742-3.308-10.906-8.729-10.906c-5.796,0-10.292,5.162-10.313,12.164
		v20.08h-4.392v-21.338c0-6.779-3.29-10.906-8.781-10.906c-5.794,0-10.292,5.162-10.312,12.164v20.08h-4.484v-35.609h3.285
		l0.761,5.484c2.612-3.891,6.899-6.234,11.724-6.234c5.232,0,9.209,2.844,11.057,7.377c2.482-4.564,7.088-7.377,12.333-7.377
		C335.783,499.361,340.698,504.992,340.698,513.047z"/>
	<path d="M370.611,499.359c10.69,0,18.276,7.934,18.276,18.561c0,10.576-7.588,18.557-18.276,18.557
		c-6.022,0-11.162-2.615-14.459-6.838l-0.647,6.088h-3.52v-48.281h4.484v18.34C359.772,501.799,364.778,499.361,370.611,499.359
		L370.611,499.359z M384.313,517.92c0-8.189-5.916-14.215-14.028-14.215c-8.069,0-14.093,6.109-14.093,14.215
		c0,8.037,6.021,14.211,14.093,14.211C378.397,532.131,384.313,526.107,384.313,517.92z"/>
	<path d="M416.703,499.955v4.254h-3.497c-6.812,0-10.898,4.713-10.898,11.941v19.572h-4.487v-35.607h3.24l0.765,6.105
		c2.475-3.998,6.398-6.264,11.748-6.264h3.131L416.703,499.955L416.703,499.955z"/>
	<path d="M454.696,519.604h-31.303c0.723,7.418,6.177,12.484,13.59,12.484c5.363,0,9.662-2.615,12.065-6.994h4.735
		c-3.126,7.25-9.22,11.385-16.802,11.385c-10.274,0-18.063-7.98-18.063-18.578c0-10.559,7.785-18.539,18.063-18.539
		c10.623,0,17.806,8.217,17.806,18.578C454.784,518.488,454.742,519.055,454.696,519.604z M423.484,515.441h26.849
		c-1.016-7.211-6.384-11.826-13.352-11.826C429.821,503.615,424.486,508.4,423.484,515.441z"/>
</g>
</svg>
