<?xml version="1.0" encoding="utf-8"?>
<!-- Generator: Adobe Illustrator 15.1.0, SVG Export Plug-In . SVG Version: 6.00 Build 0)  -->
<!DOCTYPE svg PUBLIC "-//W3C//DTD SVG 1.1//EN" "http://www.w3.org/Graphics/SVG/1.1/DTD/svg11.dtd">
<svg version="1.1" id="icons" xmlns="http://www.w3.org/2000/svg" xmlns:xlink="http://www.w3.org/1999/xlink" x="0px" y="0px"
	 width="597.076px" height="597.076px" viewBox="0 0 597.076 597.076" enable-background="new 0 0 597.076 597.076"
	 xml:space="preserve">
<g>
	<path fill="none" stroke="#F31000" stroke-width="6" stroke-linecap="round" stroke-linejoin="round" stroke-miterlimit="10" d="
		M360.01,261.722h209.409c13.51,0,24.656-11.147,24.656-24.657V27.656C594.075,14.145,582.929,3,569.419,3H360.01
		c-13.511,0-24.655,11.145-24.655,24.656v209.408C335.354,250.575,346.5,261.722,360.01,261.722z"/>
	<path fill="none" stroke="#F31000" stroke-width="6" stroke-linecap="round" stroke-linejoin="round" stroke-miterlimit="10" d="
		M27.656,261.722h209.409c13.51,0,24.657-11.147,24.657-24.657V27.656C261.722,14.145,250.575,3,237.065,3H27.656
		C14.145,3,3,14.145,3,27.656v209.408C3,250.575,14.145,261.722,27.656,261.722z"/>
	
		<polyline fill="none" stroke="#111111" stroke-width="6" stroke-linecap="round" stroke-linejoin="round" stroke-miterlimit="10" points="
		397.164,113.783 446.137,163.096 544.763,64.472 	"/>
	<path fill="#FFFFFF" d="M594.075,594.075V379.261c-5.4-3.04-10.809-5.403-16.887-7.093l-69.242-16.55v-81.737
		c0-34.113-27.696-61.471-61.471-61.471c-33.777,0-61.811,27.696-61.811,61.471v94.571c-14.521-8.106-31.75-10.472-48.637-6.078
		c-22.295,5.74-40.193,22.628-46.947,44.922c-5.404,17.9-3.042,36.813,6.079,52.688l69.24,134.091H594.075z"/>
	<path fill="none" stroke="#F31000" stroke-width="6" stroke-linecap="round" stroke-linejoin="round" stroke-miterlimit="10" d="
		M551.519,594.075c1.35-2.366,42.557-64.851,42.557-101.328v-51.339c0-15.536-10.467-29.385-25.668-33.434l-97.613-23.311V273.881
		c0-13.511-11.145-24.657-24.656-24.657c-13.511,0-24.654,11.146-24.654,24.657V409.32v12.162c0,16.547-5.064,29.722-12.162,36.812
		l-32.422-48.637c-7.096-10.471-19.59-15.198-31.752-11.82c-9.791,2.362-17.563,10.137-20.602,19.59
		c-2.365,8.443-1.352,16.889,3.037,23.979l78.359,152.329"/>
</g>
</svg>
