<?xml version="1.0" encoding="utf-8"?>
<!-- Generator: Adobe Illustrator 15.1.0, SVG Export Plug-In . SVG Version: 6.00 Build 0)  -->
<!DOCTYPE svg PUBLIC "-//W3C//DTD SVG 1.1//EN" "http://www.w3.org/Graphics/SVG/1.1/DTD/svg11.dtd">
<svg version="1.1" id="Capa_1" xmlns="http://www.w3.org/2000/svg" xmlns:xlink="http://www.w3.org/1999/xlink" x="0px" y="0px"
	 width="2320.246px" height="1062.174px" viewBox="0 0 2320.246 1062.174" enable-background="new 0 0 2320.246 1062.174"
	 xml:space="preserve">
<rect x="193.579" y="440.149" fill="#FFFFFF" width="48.658" height="278.78"/>
<polygon fill="#FFFFFF" points="381.625,718.479 428.372,718.479 428.372,537.181 625.259,722.804 625.259,439.713 578.603,439.713 
	578.603,617.931 381.625,435.4 "/>
<g>
	<defs>
		<rect id="SVGID_1_" width="2320.246" height="1062.174"/>
	</defs>
	<clipPath id="SVGID_2_">
		<use xlink:href="#SVGID_1_"  overflow="visible"/>
	</clipPath>
	<path clip-path="url(#SVGID_2_)" fill="#FFFFFF" d="M750.213,649.176c26.034,20.479,57.343,32.271,90.873,32.271
		c32.644,0,55.612-11.304,55.612-36.338c0-21.802-14.64-30.31-40.213-39.908l-41.422-14.498
		c-38.225-13.68-67.276-33.658-67.276-79.531c0-49.068,43.975-75.771,96.559-75.771c32.221,0,61.578,8.161,84.534,22.624v48.67
		c-23.853-17.76-49.94-29.987-83.507-29.987c-28.872,0-50.455,10.881-50.455,33.502c0,20.492,13.55,28.641,37.392,36.878
		l46.194,16.374c44.73,15.795,65.274,40.381,65.274,80.774c0,50.878-44.411,78.965-102.692,78.965
		c-38.291,0-70.831-10.79-90.873-24.392V649.176z"/>
</g>
<rect x="1069.667" y="440.149" fill="#FFFFFF" width="48.633" height="278.78"/>
<g>
	<defs>
		<rect id="SVGID_3_" width="2320.246" height="1062.174"/>
	</defs>
	<clipPath id="SVGID_4_">
		<use xlink:href="#SVGID_3_"  overflow="visible"/>
	</clipPath>
	<path clip-path="url(#SVGID_4_)" fill="#FFFFFF" d="M1368.361,676.726c60.103,0,92.259-37.712,92.259-97.239
		c0-59.987-32.156-97.571-92.259-97.571h-59.46v194.81H1368.361z M1260.396,440.149h109.774
		c84.521,0,139.184,54.497,139.184,139.338c0,84.945-54.662,139.467-139.184,139.467h-109.774V440.149z"/>
</g>
<polygon fill="#FFFFFF" points="1785.632,440.149 1785.632,481.916 1659.561,481.916 1659.561,548.986 1772.634,548.986 
	1772.634,590.253 1659.561,590.253 1659.561,676.726 1785.632,676.726 1785.632,718.941 1612.008,718.941 1612.008,440.149 "/>
<g>
	<defs>
		<rect id="SVGID_5_" width="2320.246" height="1062.174"/>
	</defs>
	<clipPath id="SVGID_6_">
		<use xlink:href="#SVGID_5_"  overflow="visible"/>
	</clipPath>
	<path clip-path="url(#SVGID_6_)" fill="#FFFFFF" d="M1979.273,566.398h54.47c32.22,0,50.391-16.846,50.391-42.663
		c0-25.844-18.171-42.678-50.391-42.678h-54.47V566.398z M1979.273,605.819v113.11h-48.401v-278.78h103.782
		c59.191,0,97.482,28.988,97.482,83.586c0,46.642-21.238,73.473-66.533,80.338l102.987,114.855h-55.087l-99.713-113.11H1979.273z"/>
	<path clip-path="url(#SVGID_6_)" fill="#FFFFFF" d="M160.985,140.417c21.135-7.302,37.56-29.231,37.56-59.372
		c0-50.25-37.56-76.311-97.635-76.311H0v280.474h110.301c60.078,0,97.623-27.858,97.623-80.391
		C207.924,175.15,188.215,149.09,160.985,140.417 M47.426,122.618V45.847h52.996c33.36,0,51.171,11.447,51.171,37.931
		c0,26.497-17.811,38.84-51.171,38.84H47.426z M47.426,161.871h61.925c32.875,0,50.686,15.526,50.686,41.137
		c0,25.098-17.811,41.1-50.686,41.1H47.426V161.871z M428.14,289.777c68.982,0,115.446-39.291,115.446-116.025V4.734h-48.837
		v163.552c0,53.906-23.431,79.029-66.609,79.029c-43.192,0-66.673-25.123-66.673-79.029V4.734h-48.812v168.569
		C312.654,250.486,359.593,289.777,428.14,289.777 M658.531,265.114c20.172,13.715,53.045,24.663,91.527,24.663
		c58.666,0,103.269-28.308,103.269-79.467c0-40.664-20.672-65.312-65.723-81.313l-46.462-16.45
		c-23.931-8.212-37.56-16.438-37.56-36.994c0-22.853,21.595-33.798,50.698-33.798c33.811,0,60.09,12.316,84.009,30.14V23.033
		c-22.996-14.628-52.584-22.84-84.947-22.84c-53.045,0-97.133,26.92-97.133,76.271c0,46.154,29.076,66.237,67.569,79.927
		l41.779,14.616c25.792,9.624,40.369,18.296,40.369,40.226c0,25.086-23.02,36.519-55.869,36.519
		c-33.798,0-65.262-11.869-91.527-32.424V265.114z M1027.733,4.734h-48.81v280.461h48.81V4.734z M1166.995,284.836h47.028V102.396
		l197.966,186.79V4.325h-46.913v179.36L1166.995,0V284.836z M1716.995,4.812v42.011h-126.712v67.493h113.676v41.511h-113.676v87.011
		h126.712v42.434H1542.46V4.812H1716.995z M1830.671,264.947c20.17,13.69,53.045,24.65,91.5,24.65
		c58.692,0,103.27-28.321,103.27-79.467c0-40.664-20.658-65.351-65.709-81.34l-46.477-16.423
		c-23.932-8.225-37.533-16.437-37.533-37.006c0-22.829,21.595-33.813,50.672-33.813c33.812,0,60.117,12.358,84.033,30.167V22.841
		C1987.434,8.225,1957.871,0,1925.458,0c-53.021,0-97.161,26.947-97.161,76.284c0,46.117,29.126,66.21,67.596,79.927l41.805,14.628
		c25.792,9.571,40.344,18.259,40.344,40.176c0,25.135-22.996,36.57-55.871,36.57c-33.771,0-65.223-11.896-91.5-32.439V264.947z
		 M2125.451,264.947c20.172,13.69,53.046,24.65,91.515,24.65c58.68,0,103.295-28.321,103.295-79.467
		c0-40.664-20.685-65.351-65.726-81.34l-46.474-16.423c-23.971-8.225-37.546-16.437-37.546-37.006
		c0-22.829,21.568-33.813,50.685-33.813c33.798,0,60.078,12.358,84.034,30.167V22.841C2282.228,8.225,2252.662,0,2220.25,0
		c-53.008,0-97.148,26.947-97.148,76.284c0,46.117,29.116,66.21,67.584,79.927l41.78,14.628
		c25.831,9.571,40.368,18.259,40.368,40.176c0,25.135-22.993,36.57-55.868,36.57c-33.786,0-65.211-11.896-91.515-32.439V264.947z"/>
</g>
<polygon fill="#FFFFFF" points="649.998,872.497 649.998,900.47 559.099,900.47 559.099,949.716 641.49,949.716 641.49,977.382 
	559.099,977.382 559.099,1030.877 649.998,1030.877 649.998,1059.132 528.072,1059.132 528.072,872.497 "/>
<g>
	<defs>
		<rect id="SVGID_7_" width="2320.246" height="1062.174"/>
	</defs>
	<clipPath id="SVGID_8_">
		<use xlink:href="#SVGID_7_"  overflow="visible"/>
	</clipPath>
	<path clip-path="url(#SVGID_8_)" fill="#FFFFFF" d="M723.882,1012.63c17.014,13.692,37.366,21.596,59.256,21.596
		c21.275,0,36.186-7.596,36.186-24.341c0-14.576-9.419-20.312-26.139-26.715l-27.061-9.754
		c-24.918-9.097-43.781-22.506-43.781-53.186c0-32.85,28.574-50.762,62.924-50.762c20.994,0,40.152,5.453,55.036,15.191v32.528
		c-15.487-11.856-32.555-20.068-54.418-20.068c-18.862,0-32.85,7.301-32.85,22.48c0,13.666,8.843,19.158,24.33,24.626l30.103,10.918
		c29.205,10.677,42.55,27.087,42.55,54.138c0,34.066-28.884,52.892-66.88,52.892c-24.918,0-46.218-7.263-59.256-16.413V1012.63z"/>
	<path clip-path="url(#SVGID_8_)" fill="#FFFFFF" d="M1000.813,899.854h-39.817v62.323h39.817c21.891,0,33.131-13.089,33.131-31.028
		C1033.944,912.609,1022.704,899.854,1000.813,899.854 M960.996,989.533v69.599h-31.629V872.497h72.037
		c38.597,0,63.875,20.056,63.875,58.652c0,38.02-25.278,58.384-63.875,58.384H960.996z"/>
</g>
<path fill="#FFFFFF" d="M1175.003,980.103h51.068l-25.546-69.021L1175.003,980.103z M1216.064,872.497l71.715,186.635h-32.22
	l-19.146-51.672h-71.432l-19.17,51.672h-31.9l71.754-186.635H1216.064z"/>
<g>
	<defs>
		<rect id="SVGID_9_" width="2320.246" height="1062.174"/>
	</defs>
	<clipPath id="SVGID_10_">
		<use xlink:href="#SVGID_9_"  overflow="visible"/>
	</clipPath>
	<path clip-path="url(#SVGID_10_)" fill="#FFFFFF" d="M1480.213,816.859c0,23.7-8.506,39.83-25.187,39.83
		c-14.628,0-22.828-14.604-33.761-14.604c-6.376,0-9.431,4.247-9.739,13.665h-18.22c0-23.675,8.468-39.79,25.201-39.79
		c14.577,0,22.814,14.589,33.747,14.589c6.083,0,9.431-4.273,9.727-13.69H1480.213z M1511.818,1059.132h-24.303l-95.427-135.86
		v135.86h-30.425V872.497h29.795l90.001,129.496V872.497h30.359V1059.132z"/>
</g>
<path fill="#FFFFFF" d="M1646.846,980.103h51.043l-25.522-69.021L1646.846,980.103z M1687.881,872.497l71.715,186.635h-32.195
	l-19.17-51.672h-71.432l-19.145,51.672h-31.925l71.727-186.635H1687.881z"/>
</svg>
