<?xml version="1.0" encoding="utf-8"?>
<!-- Generator: Adobe Illustrator 15.1.0, SVG Export Plug-In . SVG Version: 6.00 Build 0)  -->
<!DOCTYPE svg PUBLIC "-//W3C//DTD SVG 1.1//EN" "http://www.w3.org/Graphics/SVG/1.1/DTD/svg11.dtd">
<svg version="1.1" xmlns="http://www.w3.org/2000/svg" xmlns:xlink="http://www.w3.org/1999/xlink" x="0px" y="0px"
	 width="358.223px" height="571.415px" viewBox="0 0 358.223 571.415" enable-background="new 0 0 358.223 571.415"
	 xml:space="preserve">
<g id="Fondo" display="none">
</g>
<g id="Guías">
</g>
<g id="Primer_plano">
	<rect fill="#D7071C" width="358.223" height="507.458"/>
	<g>
		<defs>
			<rect id="SVGID_1_" width="358.223" height="571.415"/>
		</defs>
		<clipPath id="SVGID_2_">
			<use xlink:href="#SVGID_1_"  overflow="visible"/>
		</clipPath>
		<path clip-path="url(#SVGID_2_)" fill="#781417" d="M50.232,182.923l-23.454,78.341H-0.004v-22.539L62.306,30.608h26.87h6.635
			h26.225L93.35,261.264H60.49l9.749-78.341H50.232z M86.405,68.568l-24.816,76.395h15.323L86.405,68.568z M139.432,276.801h37.979
			v37.979h-37.979V276.801z M139.432,322.277h37.979V481.77h-37.979V322.277z M85.824,398.284H71.847v46.406h13.977V398.284z
			 M85.824,313.89H71.847v46.416h13.977V313.89z M71.847,276.801h39.345c6.955,0,12.597,5.638,12.597,12.602v77.286
			c0,6.945-5.642,12.601-12.597,12.601c6.955,0,12.597,5.646,12.597,12.602v77.287c0,6.955-5.642,12.592-12.597,12.592
			l-39.345,0.018h-37.97V379.29V276.801H71.847z M193.04,276.801h37.97V481.77h-37.97V276.801z M246.652,469.178V334.355
			c0-6.954,5.633-12.601,12.578-12.601h39.646v-44.954h37.956V481.77h-37.956H259.23
			C252.285,481.77,246.652,476.133,246.652,469.178 M286.269,443.799h12.607v-84.076h-12.607V443.799z M301.772,227.905
			l15.449-125.938h-14.282l-15.474,125.938H301.772z M339.489,68.587c6.964,0,11.914,5.647,11.042,12.602l-20.563,167.474
			c-0.833,6.964-7.183,12.602-14.142,12.602H263.89c-6.94,0-11.89-5.637-11.038-12.602l20.549-167.474
			c0.862-6.955,7.202-12.602,14.146-12.602H339.489z M184.889,248.663c-0.852,6.964-7.192,12.602-14.142,12.602h-51.292
			c-6.96,0-11.89-5.637-11.057-12.602l22.128-180.075h31.402l-19.561,159.317h14.302L176.22,68.587h30.758L184.889,248.663z
			 M259.031,68.587h9.73l-4.098,33.379h-9.739l-19.562,159.298h-35.32l19.551-159.298h-9.739l4.117-33.379h9.729l4.66-37.979h35.32
			L259.031,68.587z"/>
		<path clip-path="url(#SVGID_2_)" fill="#FFFFFF" d="M45.011,178.37l-23.45,78.332H0v-39.975L57.09,26.075h26.869h6.659h26.201
			L88.139,256.702h-32.86l9.749-78.332H45.011z M81.194,64.006l-24.816,76.384h15.314L81.194,64.006z M134.221,272.239h37.955
			v37.969h-37.955V272.239z M134.221,317.715h37.955v159.492h-37.955V317.715z M80.618,393.713H66.631v46.416h13.987V393.713z
			 M80.618,309.327H66.631v46.427h13.987V309.327z M66.631,272.239h39.35c6.964,0,12.597,5.636,12.597,12.6v77.296
			c0,6.944-5.633,12.591-12.597,12.591c6.964,0,12.597,5.639,12.597,12.604v77.295c0,6.955-5.633,12.572-12.597,12.572h-39.35
			H28.657V374.727V272.239H66.631z M187.819,272.239h37.97v204.958h-37.97V272.239z M241.417,464.625V329.803
			c0-6.964,5.637-12.6,12.597-12.6h39.636v-44.963h37.979v204.958H293.65h-39.636C247.055,477.198,241.417,471.581,241.417,464.625
			 M281.062,439.239h12.587v-84.058h-12.587V439.239z M296.546,223.343L312.02,97.404h-14.302l-15.464,125.939H296.546z
			 M334.278,64.025c6.95,0,11.899,5.637,11.047,12.592l-20.559,167.494c-0.867,6.954-7.192,12.591-14.156,12.591h-51.923
			c-6.955,0-11.914-5.637-11.042-12.591l20.564-167.494c0.843-6.955,7.182-12.592,14.132-12.592H334.278z M179.654,244.111
			c-0.843,6.954-7.167,12.591-14.142,12.591h-51.27c-6.944,0-11.894-5.637-11.061-12.591L125.31,64.025h31.402l-19.547,159.318
			h14.272l19.581-159.318h30.753L179.654,244.111z M253.796,64.025h9.739l-4.092,33.378h-9.734l-19.556,159.298h-35.331
			l19.557-159.298h-9.73l4.098-33.378h9.729l4.674-37.95h35.32L253.796,64.025z"/>
	</g>
	<rect y="507.458" width="358.223" height="63.957"/>
	<polygon fill="#FFFFFF" points="135.063,562.708 135.063,557.262 127.344,557.262 127.344,542.637 134.657,542.637 
		134.657,537.213 127.344,537.213 127.344,526.5 134.942,526.5 134.942,521.065 121.145,521.065 121.145,562.708 	"/>
	<g>
		<defs>
			<rect id="SVGID_3_" width="358.223" height="571.415"/>
		</defs>
		<clipPath id="SVGID_4_">
			<use xlink:href="#SVGID_3_"  overflow="visible"/>
		</clipPath>
		<path clip-path="url(#SVGID_4_)" fill="#FFFFFF" d="M144.008,546.918h-6.189v9.588c0,5.436,4.267,7.014,8.064,7.014
			c3.86,0,8.127-1.578,8.127-7.014v-7.369c0-4.215-10.001-13.223-10.001-16.205v-5.154c0-2.102,0.645-2.566,1.938-2.566
			c1.23,0,1.874,0.465,1.874,2.566v8.254h6.189v-8.777c0-5.434-4.267-7.012-8.127-7.012c-3.797,0-8.064,1.578-8.064,7.012v5.977
			c0,6.781,10.001,12.514,10.001,18.365v4.389c0,2.111-0.644,2.576-1.874,2.576c-1.293,0-1.938-0.465-1.938-2.576V546.918z"/>
		<path clip-path="url(#SVGID_4_)" fill="#FFFFFF" d="M166.771,539.895c0,1.881-1.991,1.881-3.807,1.881v-15.74h1.109
			c2.116,0,2.698,1.104,2.698,3.971V539.895z M172.961,538.2v-9.018c0-6.072-3.27-8.117-9.711-8.117h-6.485v41.631h6.199v-15.961
			h2.582C170.335,546.735,172.961,543.936,172.961,538.2"/>
	</g>
	<path fill="#FFFFFF" d="M183.547,545.979h-3.21l1.516-17.318h0.417L183.547,545.979z M191.562,562.708l-4.731-41.643h-9.303
		l-4.732,41.643h5.613l1.342-11.295h4.383l1.172,11.295H191.562z"/>
	<g>
		<defs>
			<rect id="SVGID_5_" width="358.223" height="571.415"/>
		</defs>
		<clipPath id="SVGID_6_">
			<use xlink:href="#SVGID_5_"  overflow="visible"/>
		</clipPath>
		<path clip-path="url(#SVGID_6_)" fill="#FFFFFF" d="M194.217,524.815v37.893h5.08v-27.471c-0.058-1.598-0.169-3.246-0.169-4.902
			h0.227c0.528,4.477,0.882,8.738,1.875,13.426l2.926,18.947h9.187v-37.893h-5.09v19.266c0,3.67,0.237,7.389,0.18,11.07v2.025
			h-0.238c-0.528-7.139-1.516-14.432-2.925-21.455l-1.758-10.906H194.217z"/>
		<path clip-path="url(#SVGID_6_)" fill="#FFFFFF" d="M197.666,521.346c0.237-1.055,1.051-2.18,2.396-2.18
			c0.707,0,1.579,0.271,2.572,0.523c0.998,0.271,2.112,0.543,3.042,0.543c2.989,0,5.211-2.393,5.498-5.105
			c0-0.164-1.865,0-2.151-0.057c-0.358,1.385-0.944,2.023-2.582,2.023c-0.702,0-1.753-0.318-2.809-0.582
			c-0.998-0.318-2.048-0.59-2.697-0.59c-3.56,0-4.848,2.5-5.312,5.424H197.666z"/>
	</g>
	<path fill="#FFFFFF" d="M226.844,545.979h-3.21l1.516-17.318h0.417L226.844,545.979z M234.86,562.708l-4.732-41.643h-9.303
		l-4.731,41.643h5.613l1.341-11.295h4.382l1.172,11.295H234.86z"/>
</g>
<g id="Vordergrund">
</g>
</svg>
