<?xml version="1.0" encoding="utf-8"?>
<!-- Generator: Adobe Illustrator 15.1.0, SVG Export Plug-In . SVG Version: 6.00 Build 0)  -->
<!DOCTYPE svg PUBLIC "-//W3C//DTD SVG 1.1//EN" "http://www.w3.org/Graphics/SVG/1.1/DTD/svg11.dtd">
<svg version="1.1" id="Capa_1" xmlns="http://www.w3.org/2000/svg" xmlns:xlink="http://www.w3.org/1999/xlink" x="0px" y="0px"
	 width="1521.938px" height="644.562px" viewBox="0 0 1521.938 644.562" enable-background="new 0 0 1521.938 644.562"
	 xml:space="preserve">
<path fill="#F31000" d="M1300.543,124.35h76.025v-5.036h-64.99l42.277-45.351c10.656-11.387,21.451-24.404,21.451-41.921
	c0-18.621-12.975-31.956-33.389-31.956c-18.43,0-31.432,11.902-36.129,28.166l5.24,1.625c3.969-13.923,14.811-24.579,30.889-24.579
	c17.154,0,27.633,11.204,27.633,26.743c0,15.53-8.311,26.553-18.963,37.936l-50.047,53.647v0.726H1300.543z M1193.965,120.574
	c-32.547,0-56.918-24.567-56.918-57.642c0-33.055,24.389-57.629,56.918-57.629c32.51,0,56.881,24.579,56.881,57.629
	C1250.846,95.997,1226.465,120.574,1193.965,120.574 M1193.965,125.789c34.676,0,62.854-26.544,62.854-62.862
	c0-36.313-28.18-62.841-62.854-62.841c-34.699,0-62.879,26.533-62.879,62.841C1131.086,99.249,1159.266,125.789,1193.965,125.789
	 M1007.701,124.35h76.031v-5.036h-64.99l42.26-45.351c10.66-11.387,21.496-24.404,21.496-41.921
	c0-18.621-13.006-31.956-33.408-31.956c-18.432,0-31.432,11.902-36.125,28.166l5.252,1.625
	c3.951-13.923,14.803-24.579,30.873-24.579c17.156,0,27.641,11.204,27.641,26.743c0,15.53-8.312,26.553-18.965,37.936
	l-50.051,53.647L1007.701,124.35L1007.701,124.35z M818.77,101.778c7.582,14.276,21.115,24.01,40.441,24.01
	c22.965,0,36.496-12.446,36.496-30.7c0-16.605-8.648-26.188-29.258-36.317l-11.016-5.41c-16.277-7.958-23.676-12.839-23.676-26.201
	c0-12.649,9.936-22.043,24.031-22.043c12.83,0,21.514,4.704,27.836,14.81l4.338-2.527c-7.424-11.916-17.342-17.313-32.174-17.313
	c-16.447,0-29.605,10.622-29.605,27.074c0,15.721,9.352,22.399,26.713,30.906l11.205,5.415c18.084,8.67,26.016,16.631,26.016,31.613
	c0,15.183-11.195,25.48-30.896,25.48c-15.898,0-28.553-8.127-35.562-21.501L818.77,101.778z M712.7,120.574
	c-32.513,0-56.917-24.567-56.917-57.642c0-33.055,24.404-57.629,56.917-57.629c32.521,0,56.927,24.579,56.927,57.629
	C769.627,95.997,745.222,120.574,712.7,120.574 M712.7,125.789c34.703,0,62.863-26.544,62.863-62.862
	c0-36.313-28.164-62.841-62.863-62.841c-34.695,0-62.843,26.533-62.843,62.841C649.857,99.249,678.004,125.789,712.7,125.789
	 M586.806,124.35h5.765V1.502h-5.765V124.35z M406.144,124.35h5.424V14.172l50.764,66.645h0.532l51.308-66.645v110.173h5.425V-1
	h-0.73l-56.006,73.518L406.87-1h-0.725L406.144,124.35L406.144,124.35z M274.828,124.35h73.323v-5.036h-67.56V81.527h58.345v-5.032
	h-58.345V6.563h65.032V1.521h-70.795V124.35z M148.712,87.331V6.563h16.629c31.076,0,44.093,18.241,44.093,40.485
	c0,22.222-12.654,40.281-44.093,40.281L148.712,87.331L148.712,87.331z M182.869,90.401c21.506-5.779,32.325-22.943,32.325-43.348
	c0-25.122-16.244-45.532-49.137-45.532H142.95V124.35h5.759V92.368h17.348c3.804,0,7.408-0.354,10.669-0.712l27.468,32.694h7.211
	L182.869,90.401z M19.021,87.317V6.574h15.713c31.788,0,44.082,18.241,44.082,40.472c0,22.223-12.299,40.271-44.082,40.271H19.021
	L19.021,87.317z M19.021,92.38h16.447c33.042,0,49.125-20.23,49.125-45.326c0-25.122-16.083-45.547-49.125-45.547H13.242V124.35
	h5.779L19.021,92.38L19.021,92.38z"/>
<path fill="#F31000" d="M1422.582,124.35h76.027v-5.036h-64.99l42.275-45.351c10.656-11.387,21.445-24.404,21.445-41.921
	c0-18.621-12.969-31.956-33.391-31.956c-18.416,0-31.42,11.902-36.123,28.166l5.248,1.625c3.965-13.923,14.803-24.579,30.869-24.579
	c17.164,0,27.639,11.204,27.639,26.743c0,15.53-8.312,26.553-18.963,37.936l-50.041,53.647v0.725L1422.582,124.35L1422.582,124.35z"
	/>
<g id="logo_AS">
	<rect x="1137.656" y="600.891" fill="#F31000" width="74.744" height="16.73"/>
	<path fill="#FFFFFF" d="M366.419,551.565l-2.315,5.085c-5.431-4.461-12.355-7.064-20.089-7.064
		c-20.115,0-34.48,14.503-34.48,34.857c0,20.428,14.365,35.106,34.48,35.106c7.634,0,14.442-2.513,19.835-6.89l1.934,4.66h17.519
		v-65.736L366.419,551.565z M347.037,599.484c-8.481,0-14.715-6.393-14.715-14.979c0-8.551,6.182-14.954,14.715-14.954
		c8.484,0,14.723,6.403,14.723,14.954C361.76,593.092,355.521,599.484,347.037,599.484 M461.828,617.41l-21.844-34.709
		l20.369-31.033h-24.645l-9.941,16.553l-9.499-16.553h-24.997l20.221,31.635l-21.815,34.107h25.013l11.017-19.49l10.808,19.49
		H461.828L461.828,617.41z M532.778,583.896c0-19.295-14.672-34.407-35.87-34.407c-20.633,0-35.714,14.814-35.714,34.981
		c0,20.092,15.205,35.08,35.714,35.08c16.502,0,29.801-9.374,34.428-24.388h-22.543c-2.178,3.854-6.584,6.158-11.89,6.158
		c-7.149,0-11.934-3.896-13.424-11.431h48.829C532.607,587.856,532.778,585.885,532.778,583.896z M496.908,567.234
		c6.837,0,11.572,3.533,13.56,10.104h-26.577C485.714,570.817,490.307,567.234,496.908,567.234 M543.076,617.41h22.651v-89.508
		h-22.651V617.41z M631.756,619.55c17.473,0,29.07-8.984,29.07-22.728c0-16.699-13.808-18.834-24.196-20.683
		c-6.251-1.114-11.279-1.99-11.279-5.722c0-3.064,2.448-4.864,6.073-4.864c4.104,0,6.931,1.955,6.931,6.16h21.211
		c-0.26-13.322-11.111-22.228-27.859-22.228c-16.841,0-28.079,8.508-28.079,21.682c0,15.939,13.517,19.027,23.716,20.662
		c6.315,1.049,11.287,2.153,11.287,5.938c0,3.396-3.134,5.095-6.453,5.095c-4.286,0-7.643-2.221-7.643-7.035h-21.804
		C602.946,610.078,613.837,619.55,631.756,619.55z M709.824,549.496c-7.819,0-14.776,2.711-20.18,7.384l-2.83-5.212h-15.401v89.494
		h22.386v-25.896c4.645,2.803,10.084,4.372,16.025,4.372c20.117,0,34.487-14.621,34.487-35.103
		C744.311,564.025,729.941,549.496,709.824,549.496 M706.791,599.565c-8.479,0-14.705-6.411-14.705-15.042
		c0-8.641,6.227-15.042,14.705-15.042c8.493,0,14.723,6.401,14.723,15.042C721.513,593.154,715.225,599.565,706.791,599.565
		 M791.502,551.345c-7.824,0-13.475,2.237-18.102,7.604l-3.527-7.283h-15.176v65.744h22.639v-33.444
		c0-8.384,3.354-11.912,11.385-11.912h8.777v-20.709H791.502L791.502,551.345z M806.244,543.412h22.314v-19.215h-22.314V543.412z
		 M806.08,617.41h22.646v-65.742H806.08V617.41z M882.668,549.699c-8.512,0-15.801,3.254-20.678,8.729l-3.117-6.774h-15.904V617.4
		h22.654v-35.113c0-8.389,4.072-13.305,11.135-13.305c5.699,0,8.586,3.794,8.586,11.439v36.963h22.646v-40.1
		C907.973,560.55,897.949,549.699,882.668,549.699 M974.209,551.654l-2.895,5.51c-5.562-4.775-12.775-7.623-20.732-7.623
		c-18.854,0-32.852,14.315-32.852,33.082c0,19.002,13.998,33.054,32.852,33.054c6.346,0,12.23-1.808,17.164-4.96v1.98
		c0,7.812-6.107,12.637-13.693,12.637c-5.486,0-11.105-2.365-12.678-6.766h-21.846c3.016,15.581,16.086,24.994,34.744,24.994
		c21.727,0,35.238-12.781,35.238-33.477v-58.418L974.209,551.654L974.209,551.654z M954.354,597.019
		c-8.207,0-14.053-6.03-14.053-14.396c0-8.312,5.906-14.354,14.053-14.354c8.156,0,13.975,6.04,13.975,14.354
		C968.328,590.988,962.48,597.019,954.354,597.019z M1071.559,583.896c0-19.295-14.666-34.407-35.863-34.407
		c-20.627,0-35.717,14.814-35.717,34.981c0,20.092,15.195,35.08,35.717,35.08c16.504,0,29.809-9.374,34.428-24.388h-22.539
		c-2.176,3.854-6.605,6.158-11.895,6.158c-7.137,0-11.934-3.896-13.424-11.431h48.836
		C1071.398,587.856,1071.559,585.885,1071.559,583.896z M1035.695,567.234c6.848,0,11.58,3.533,13.562,10.104h-26.59
		C1024.5,570.817,1029.105,567.234,1035.695,567.234 M1118.68,551.345c-7.824,0-13.484,2.237-18.109,7.604l-3.52-7.283h-15.184
		v65.744h22.646v-33.444c0-8.384,3.359-11.912,11.375-11.912h8.795v-20.709H1118.68L1118.68,551.345z"/>
</g>
<path fill="#FFFFFF" d="M1345.973,339.674V230.295h32.561c39.863,0,54.436,22.841,54.436,54.918
	c0,32.087-14.586,54.461-54.436,54.461H1345.973L1345.973,339.674z M1462.137,392.156c38.887-21.392,59.801-59.31,59.801-106.943
	c0-73.393-50.082-129.782-139.02-129.782h-125.426v330.543h88.479V410.15h33.064l46.168,75.819h95.742L1462.137,392.156z
	 M1082.521,413.547c-55.4,0-87-40.828-87-92.833c0-52.02,31.6-92.364,87-92.364c55.408,0,87.014,40.345,87.014,92.364
	C1169.516,372.728,1137.93,413.547,1082.521,413.547 M1082.521,490.355c95.281,0,177.424-70,177.424-169.641
	c0-99.657-82.143-169.156-177.424-169.156c-95.266,0-177.43,69.499-177.43,169.156C905.09,420.355,987.258,490.355,1082.521,490.355
	 M761.203,485.97h88.469V229.805h87.496v-74.379h-263.45v74.379h87.484V485.97L761.203,485.97z M528.366,413.547
	c-55.405,0-87.007-40.828-87.007-92.833c0-52.02,31.598-92.364,87.007-92.364c55.416,0,87.019,40.345,87.019,92.364
	C615.384,372.728,583.782,413.547,528.366,413.547 M528.366,490.355c95.278,0,177.421-70,177.421-169.641
	c0-99.657-82.143-169.156-177.421-169.156c-95.269,0-177.421,69.499-177.421,169.156
	C350.945,420.355,433.097,490.355,528.366,490.355 M0,485.97h86.516L94.3,344.511l86.032,96.246c1.471,1.477,2.925,1.477,4.382,0
	l82.624-95.733l7.784,140.956h87.019l-19.451-333.954c-0.488-3.409-2.427-2.911-4.377-0.471L182.285,329.451L23.821,151.555
	c-1.948-2.44-3.896-2.938-4.384,0.471L0,485.97z"/>
</svg>
