<?xml version="1.0" encoding="utf-8"?>
<!-- Generator: Adobe Illustrator 15.1.0, SVG Export Plug-In . SVG Version: 6.00 Build 0)  -->
<!DOCTYPE svg PUBLIC "-//W3C//DTD SVG 1.1//EN" "http://www.w3.org/Graphics/SVG/1.1/DTD/svg11.dtd">
<svg version="1.1" xmlns="http://www.w3.org/2000/svg" xmlns:xlink="http://www.w3.org/1999/xlink" x="0px" y="0px"
	 width="503.441px" height="108.019px" viewBox="0 0 503.441 108.019" enable-background="new 0 0 503.441 108.019"
	 xml:space="preserve">
<g id="Laag_2">
</g>
<g id="Laag_1">
	<g>
		<polygon fill="#FFFFFF" points="0,86.935 23.021,22.053 1.202,22.053 10.073,1.265 85.151,1.265 76.283,22.053 54.464,22.053 
			31.445,86.935 		"/>
		<path fill="#FFFFFF" d="M76.037,88.575c-14.733,0-24.375-2.584-28.658-7.682c-2.577-3.067-3.102-6.963-1.561-11.578l9.149-27.41
			c4.029-12.066,19.036-18.712,42.254-18.712c14.734,0,24.376,2.584,28.658,7.681c2.577,3.067,3.101,6.962,1.561,11.577
			l-9.149,27.41C114.262,81.929,99.256,88.575,76.037,88.575L76.037,88.575z M92.927,37.972c-4.495,0-6.398,1.16-7.544,4.598
			l-9.074,27.174c-0.518,1.555-0.546,2.577-0.084,3.125c0.515,0.615,1.896,0.926,4.103,0.926c4.497,0,6.4-1.16,7.546-4.597
			l9.072-27.174c0.519-1.555,0.547-2.578,0.086-3.125C96.516,38.284,95.134,37.972,92.927,37.972L92.927,37.972z"/>
		<path fill="#FFFFFF" d="M109.488,108.019l29.676-83.187h29.424l-1.99,5.963c5.428-4.688,14.459-7.602,24.069-7.602
			c7.443,0,13.106,1.863,15.947,5.245c2.062,2.455,2.537,5.599,1.37,9.095l-12.436,37.249c-2.753,8.25-13.229,13.793-26.066,13.793
			c-11.166,0-16.817-3.109-18.765-6.579l-8.686,26.022H109.488z M172.437,37.972c-3.491,0-7.55,1.579-8.558,4.598l-9.072,27.174
			c-0.335,1.009-0.229,1.85,0.316,2.5c0.804,0.957,2.609,1.551,4.713,1.551c3.739,0,5.879-1.417,6.94-4.597l9.071-27.174
			c0.498-1.489,0.494-2.549-0.011-3.149C175.334,38.276,174.19,37.972,172.437,37.972L172.437,37.972z"/>
		<path fill="#FFFFFF" d="M225.387,88.575c-11.032,0-18.826-2.336-22.538-6.757c-2.464-2.933-2.989-6.587-1.562-10.863l16.932-50.72
			C223.017,5.863,235.934,0,262.797,0c17.884,0,27.755,2.26,32.012,7.325c2.71,3.225,3.081,7.627,1.133,13.458l-1.905,5.711H262.59
			l2.052-6.141c0.353-1.051,0.331-1.79-0.062-2.258c-0.673-0.8-2.682-1.206-5.971-1.206c-6.499,0-8.366,1.604-9.168,4.011
			l-15.797,47.321c-0.352,1.051-0.332,1.791,0.062,2.259c0.671,0.8,2.68,1.205,5.969,1.205c6.499,0,8.367-1.603,9.17-4.01
			l3.636-11.744h-6.255l5.636-16.887h37.7L273.86,86.935l-25.071-0.004l2.509-5.565C243.729,86.247,237.625,88.575,225.387,88.575
			L225.387,88.575z"/>
		<path fill="#FFFFFF" d="M313.154,88.575c-15.716,0-25.296-2.312-29.289-7.066c-2.279-2.711-2.721-6.222-1.313-10.437l9.031-27.059
			c4.94-14.788,17.328-20.821,42.756-20.821c15.316,0,24.3,2.204,28.273,6.933c2.861,3.406,3.191,7.992,1.041,14.435l-5.389,16.136
			h-41.612l-2.944,8.813c-0.444,1.332-0.389,2.34,0.163,2.998c0.707,0.841,2.364,1.286,4.792,1.286c4.791,0,7.534-1.534,8.633-4.83
			l1.281-3.837h28.212l-2.17,6.491C350.81,83.029,337.247,88.575,313.154,88.575L313.154,88.575z M334.443,47.557l1.651-4.948
			c0.477-1.431,0.402-2.534-0.225-3.279c-0.744-0.888-2.34-1.357-4.61-1.357c-4.528,0-7.635,1.84-8.751,5.183l-1.471,4.402H334.443z
			"/>
		<path fill="#FFFFFF" d="M375.008,88.575c-9.477,0-15.253-1.62-18.17-5.097c-2.535-3.017-2.799-7.381-0.807-13.343l1.17-3.515
			c4.975-14.906,21.159-17.232,34.157-19.101c8.936-1.284,16.652-2.394,18.236-7.138c0.187-0.561,0.398-1.625-0.287-2.441
			c-0.629-0.745-1.901-1.138-3.686-1.138c-6.694,0-8.531,2.112-10.653,8.46l-0.184,0.557H367.78l2.284-6.842
			c3.346-10.031,17.804-15.784,39.662-15.784c14.418,0,24.146,2.512,28.141,7.264c2.119,2.523,2.604,5.573,1.438,9.066
			l-11.808,35.375c-1.583,4.735-2.86,7.71-2.444,10.335l0.54,1.701h-27.904l-0.225-0.599c-0.492-1.314-0.589-2.826-0.283-4.581
			C391.651,86.283,384.207,88.575,375.008,88.575L375.008,88.575z M402.309,58.582c-0.922,0.314-1.794,0.606-2.627,0.884
			c-7.084,2.363-10.639,3.549-12.416,8.874l-0.506,1.522c-0.387,1.157-0.339,2.035,0.142,2.608c0.729,0.868,2.64,1.326,5.529,1.326
			c1.933,0,5.149-1.051,5.903-3.308L402.309,58.582z"/>
		<path fill="#FFFFFF" d="M428.49,86.935l20.731-62.103h29.622l-3.467,10.394c10.008-8.593,15.76-10.435,26.648-11.327l1.416-0.116
			l-7.356,22.036h-1.126l-0.07-0.009c-1.686-0.226-3.434-0.34-5.197-0.34c-10.158,0-18.107,4.148-20.253,10.569l-10.312,30.896
			H428.49z"/>
	</g>
</g>
</svg>
