<?xml version="1.0" encoding="utf-8"?>
<!-- Generator: Adobe Illustrator 15.1.0, SVG Export Plug-In . SVG Version: 6.00 Build 0)  -->
<!DOCTYPE svg PUBLIC "-//W3C//DTD SVG 1.1//EN" "http://www.w3.org/Graphics/SVG/1.1/DTD/svg11.dtd">
<svg version="1.1" id="_x2014_ÎÓÈ_x5F_1" xmlns="http://www.w3.org/2000/svg" xmlns:xlink="http://www.w3.org/1999/xlink"
	 x="0px" y="0px" width="1451.189px" height="1451.189px" viewBox="0 0 1451.189 1451.189"
	 enable-background="new 0 0 1451.189 1451.189" xml:space="preserve">
<path fill="#F31000" d="M1433.087,891.595c12.48-53.316,19.104-108.881,19.104-166C1452.19,324.865,1127.331,0,726.597,0
	C325.86,0,1,324.864,1,725.595c0,57.119,6.623,112.683,19.099,165.998c64.77,276.717,287.914,492.451,568.619,546.453
	c44.647,8.588,90.728,13.145,137.877,13.145c47.148,0,93.221-4.557,137.871-13.145
	C1145.179,1384.046,1368.319,1168.319,1433.087,891.595z M726.595,870.712c-80.018,0-145.121-65.104-145.121-145.117
	c0-80.023,65.103-145.121,145.121-145.121c80.016,0,145.119,65.098,145.119,145.121
	C871.714,805.614,806.612,870.712,726.595,870.712z M608.458,1293.972c-217.955-45.24-391.506-213.068-445.109-427.863
	C404.144,863.663,601.574,1055.36,608.458,1293.972z M1289.837,866.103c-53.598,214.799-227.154,382.627-445.105,427.865
	C851.606,1055.36,1049.038,863.663,1289.837,866.103z M726.595,145.119c167.693,0,318.996,71.48,425.047,185.58
	c68.764,73.971-11.646,188.972-105.145,150.783c-94.488-38.593-203.688-60.646-319.904-60.646
	c-116.219,0-225.418,22.059-319.909,60.649c-93.497,38.186-173.907-76.812-105.145-150.787
	C407.599,216.603,558.901,145.119,726.595,145.119z"/>
</svg>
