<?xml version="1.0" encoding="utf-8"?>
<!-- Generator: Adobe Illustrator 15.1.0, SVG Export Plug-In . SVG Version: 6.00 Build 0)  -->
<!DOCTYPE svg PUBLIC "-//W3C//DTD SVG 1.1//EN" "http://www.w3.org/Graphics/SVG/1.1/DTD/svg11.dtd">
<svg version="1.1" id="Capa_1" xmlns="http://www.w3.org/2000/svg" xmlns:xlink="http://www.w3.org/1999/xlink" x="0px" y="0px"
	 width="539.072px" height="71.91px" viewBox="0 0 539.072 71.91" enable-background="new 0 0 539.072 71.91" xml:space="preserve">
<g display="none">
	<path display="inline" d="M27.993,77.697h4.896v21.598H42.5v4.68H27.993V77.697z"/>
	<path display="inline" d="M44.696,93.462c0-6.154,4.824-10.979,10.907-10.979c6.047,0,10.907,4.823,10.907,10.979
		c0,6.047-4.859,10.943-10.907,10.943C49.52,104.406,44.696,99.509,44.696,93.462z M61.722,93.462c0-3.562-2.664-6.406-6.119-6.406
		c-3.492,0-6.119,2.844-6.119,6.406c0,3.492,2.627,6.371,6.119,6.371C59.059,99.833,61.722,96.955,61.722,93.462z"/>
	<path display="inline" d="M85.375,101.166c-1.548,2.017-4.032,3.24-6.875,3.24c-5.075,0-10.367-4.031-10.367-10.943
		c0-6.982,5.111-10.979,10.439-10.979c2.771,0,5.219,1.225,6.767,3.131v-2.699h4.859v20.518c0,5.902-3.78,10.727-10.871,10.727
		c-5.471,0-8.891-2.556-10.799-6.047l4.32-2.628c1.547,2.845,3.204,4.211,6.551,4.211c3.672,0,5.976-2.879,5.976-6.083V101.166z
		 M85.59,93.391c0-3.601-2.664-6.479-6.299-6.479c-3.6,0-6.371,2.844-6.371,6.479c0,3.671,2.771,6.551,6.371,6.551
		C82.927,99.942,85.59,97.026,85.59,93.391z"/>
	<path display="inline" d="M92.54,93.462c0-6.154,4.824-10.979,10.907-10.979c6.047,0,10.907,4.823,10.907,10.979
		c0,6.047-4.859,10.943-10.907,10.943C97.363,104.406,92.54,99.509,92.54,93.462z M109.565,93.462c0-3.562-2.664-6.406-6.119-6.406
		c-3.492,0-6.119,2.844-6.119,6.406c0,3.492,2.627,6.371,6.119,6.371C106.902,99.833,109.565,96.955,109.565,93.462z"/>
	<path display="inline" d="M132.211,82.376h-7.019v-4.681h18.969v4.681h-7.055v21.597h-4.896L132.211,82.376L132.211,82.376z"/>
	<path display="inline" d="M145.999,93.5c0-6.156,4.788-11.016,10.943-11.016c6.263,0,10.834,4.607,10.834,10.834v1.836h-17.134
		c0.684,2.988,3.023,4.967,6.479,4.967c2.736,0,4.824-1.439,5.832-3.707l3.996,2.303c-1.836,3.42-5.076,5.689-9.827,5.689
		C150.499,104.406,145.999,99.582,145.999,93.5z M150.895,91.087h11.951c-0.72-2.844-2.88-4.32-5.903-4.32
		C154.026,86.768,151.758,88.496,150.895,91.087z"/>
	<path display="inline" d="M169.435,93.462c0-6.154,4.788-10.979,10.943-10.979c4.715,0,8.423,2.7,10.042,6.516l-4.355,1.836
		c-0.972-2.305-3.06-3.78-5.651-3.78c-3.564,0-6.228,2.844-6.228,6.407c0,3.492,2.664,6.371,6.263,6.371
		c2.736,0,4.715-1.621,5.688-3.924l4.355,1.873c-1.656,3.887-5.219,6.623-10.115,6.623
		C174.223,104.406,169.435,99.509,169.435,93.462z"/>
	<path display="inline" d="M192.511,82.917h4.823v2.59c1.404-1.834,3.563-3.022,6.299-3.022c5.292,0,8.351,3.274,8.351,8.999v12.49
		h-4.932V91.987c0-3.276-1.583-5.292-4.751-5.292c-2.772,0-4.932,2.016-4.932,5.723v11.556h-4.859V82.917H192.511z"/>
	<path display="inline" d="M214.29,93.462c0-6.154,4.824-10.979,10.907-10.979c6.047,0,10.907,4.823,10.907,10.979
		c0,6.047-4.859,10.943-10.907,10.943C219.114,104.406,214.29,99.509,214.29,93.462z M231.316,93.462
		c0-3.562-2.664-6.406-6.119-6.406c-3.492,0-6.119,2.844-6.119,6.406c0,3.492,2.627,6.371,6.119,6.371
		C228.652,99.833,231.316,96.955,231.316,93.462z"/>
	<path display="inline" d="M238.374,77.337h4.896v26.637h-4.896V77.337z"/>
	<path display="inline" d="M245.574,93.462c0-6.154,4.824-10.979,10.907-10.979c6.047,0,10.907,4.823,10.907,10.979
		c0,6.047-4.859,10.943-10.907,10.943C250.397,104.406,245.574,99.509,245.574,93.462z M262.6,93.462
		c0-3.562-2.664-6.406-6.119-6.406c-3.492,0-6.119,2.844-6.119,6.406c0,3.492,2.627,6.371,6.119,6.371
		C259.936,99.833,262.6,96.955,262.6,93.462z"/>
	<path display="inline" d="M286.252,101.166c-1.548,2.017-4.032,3.24-6.875,3.24c-5.075,0-10.367-4.031-10.367-10.943
		c0-6.982,5.111-10.979,10.439-10.979c2.771,0,5.219,1.225,6.767,3.131v-2.699h4.859v20.518c0,5.902-3.779,10.727-10.871,10.727
		c-5.471,0-8.891-2.556-10.799-6.047l4.321-2.628c1.547,2.845,3.203,4.211,6.551,4.211c3.672,0,5.976-2.879,5.976-6.083V101.166z
		 M286.468,93.391c0-3.601-2.664-6.479-6.299-6.479c-3.6,0-6.371,2.844-6.371,6.479c0,3.671,2.771,6.551,6.371,6.551
		C283.804,99.942,286.468,97.026,286.468,93.391z"/>
	<path display="inline" d="M294.101,82.917h4.896v21.057h-4.896V82.917z M298.816,74.998h4.534l-5.397,6.119h-3.274L298.816,74.998z
		"/>
	<path display="inline" d="M301.301,93.462c0-6.982,5.111-10.979,10.438-10.979c2.771,0,5.22,1.116,6.768,2.952v-2.521h4.859v21.058
		h-4.859v-2.736c-1.548,1.979-4.065,3.169-6.839,3.169C306.593,104.406,301.301,100.375,301.301,93.462z M318.759,93.391
		c0-3.601-2.664-6.479-6.299-6.479c-3.6,0-6.372,2.844-6.372,6.479c0,3.671,2.772,6.551,6.372,6.551
		C316.095,99.942,318.759,97.026,318.759,93.391z"/>
	<path display="inline" d="M334.636,93.462c0-6.154,4.787-10.979,10.942-10.979c4.716,0,8.424,2.7,10.043,6.516l-4.355,1.836
		c-0.972-2.305-3.06-3.78-5.649-3.78c-3.563,0-6.229,2.844-6.229,6.407c0,3.492,2.663,6.371,6.265,6.371
		c2.733,0,4.716-1.621,5.688-3.924l4.355,1.873c-1.656,3.887-5.222,6.623-10.115,6.623
		C339.423,104.406,334.636,99.509,334.636,93.462z"/>
	<path display="inline" d="M357.028,93.462c0-6.154,4.821-10.979,10.905-10.979c6.049,0,10.906,4.823,10.906,10.979
		c0,6.047-4.857,10.943-10.906,10.943C361.852,104.406,357.028,99.509,357.028,93.462z M374.055,93.462
		c0-3.562-2.664-6.406-6.119-6.406c-3.49,0-6.118,2.844-6.118,6.406c0,3.492,2.628,6.371,6.118,6.371
		C371.391,99.833,374.055,96.955,374.055,93.462z"/>
	<path display="inline" d="M381.148,82.917h4.821v2.59c1.403-1.834,3.563-3.022,6.299-3.022c5.291,0,8.353,3.274,8.353,8.999v12.49
		h-4.931V91.987c0-3.276-1.584-5.292-4.753-5.292c-2.771,0-4.932,2.016-4.932,5.723v11.556h-4.857V82.917L381.148,82.917z"/>
	<path display="inline" d="M412.684,77.697h8.999c5.438,0,9.469,4.176,9.469,9.359c0,5.219-4.031,9.395-9.503,9.395h-4.067v7.523
		h-4.896L412.684,77.697L412.684,77.697z M417.579,82.232v9.684h3.743c2.88,0,4.896-2.16,4.896-4.859s-2.016-4.823-4.896-4.823
		L417.579,82.232L417.579,82.232z"/>
	<path display="inline" d="M433.672,82.917h4.823v3.131c0.972-2.088,2.771-3.131,5.397-3.131c1.55,0,2.735,0.359,3.707,0.899
		l-1.836,4.606c-0.72-0.467-1.512-0.827-2.915-0.827c-2.844,0-4.317,1.512-4.317,5.147v11.229h-4.859V82.917L433.672,82.917z"/>
	<path display="inline" d="M448.646,93.462c0-6.154,4.821-10.979,10.905-10.979c6.047,0,10.906,4.823,10.906,10.979
		c0,6.047-4.859,10.943-10.906,10.943C453.47,104.406,448.646,99.509,448.646,93.462z M465.673,93.462
		c0-3.562-2.664-6.406-6.119-6.406c-3.49,0-6.12,2.844-6.12,6.406c0,3.492,2.63,6.371,6.12,6.371
		C463.009,99.833,465.673,96.955,465.673,93.462z"/>
	<path display="inline" d="M477.591,101.49v12.168h-4.823v-30.74h4.823v2.808c1.478-1.979,3.959-3.24,6.839-3.24
		c5.291,0,10.366,3.996,10.366,10.979c0,6.91-5.255,10.943-10.33,10.943C481.586,104.406,479.066,103.362,477.591,101.49z
		 M490.009,93.391c0-3.636-2.771-6.479-6.335-6.479c-3.636,0-6.264,2.881-6.264,6.479c0,3.635,2.628,6.551,6.264,6.551
		C487.237,99.942,490.009,97.062,490.009,93.391z"/>
	<path display="inline" d="M496.274,93.462c0-6.154,4.821-10.979,10.905-10.979c6.048,0,10.906,4.823,10.906,10.979
		c0,6.047-4.859,10.943-10.906,10.943C501.098,104.406,496.274,99.509,496.274,93.462z M513.301,93.462
		c0-3.562-2.664-6.406-6.119-6.406c-3.49,0-6.118,2.844-6.118,6.406c0,3.492,2.628,6.371,6.118,6.371
		C510.637,99.833,513.301,96.955,513.301,93.462z M509.665,74.637h4.535l-5.399,6.118h-3.273L509.665,74.637z"/>
	<path display="inline" d="M518.919,99.294l4.5-2.16c1.008,1.98,2.771,3.06,5.075,3.06c2.411,0,3.6-1.151,3.6-2.556
		c0-1.549-2.34-1.836-4.932-2.412c-3.6-0.756-7.379-1.908-7.379-6.335c0-3.384,3.273-6.442,8.276-6.442
		c4.284,0,6.983,1.655,8.604,4.354l-4.141,2.088c-0.863-1.477-2.446-2.412-4.465-2.412c-2.304,0-3.383,1.08-3.383,2.268
		c0,1.404,1.655,1.764,4.823,2.448c3.455,0.685,7.415,1.908,7.415,6.335c0,2.952-2.628,6.875-8.639,6.875
		C523.562,104.406,520.611,102.606,518.919,99.294z"/>
	<path display="inline" d="M541.634,74.708c1.907,0,3.062,1.225,3.062,3.061c0,1.835-1.152,3.023-3.062,3.023
		c-1.979,0-3.06-1.188-3.06-3.023C538.574,75.933,539.762,74.708,541.634,74.708z M539.188,82.917h4.896v21.057h-4.896V82.917z"/>
	<path display="inline" d="M546.312,82.917h3.601v-3.205l4.896-3.348v6.551h4.284v4.355h-4.284v7.883
		c0,3.672,0.54,4.248,4.284,4.248v4.571h-0.685c-6.517,0-8.495-2.089-8.495-8.783v-7.919h-3.601V82.917z"/>
	<path display="inline" d="M560.93,93.462c0-6.154,4.823-10.979,10.907-10.979c6.047,0,10.906,4.823,10.906,10.979
		c0,6.047-4.859,10.943-10.906,10.943C565.753,104.406,560.93,99.509,560.93,93.462z M577.956,93.462
		c0-3.562-2.664-6.406-6.119-6.406c-3.492,0-6.12,2.844-6.12,6.406c0,3.492,2.628,6.371,6.12,6.371
		C575.292,99.833,577.956,96.955,577.956,93.462z"/>
</g>
<g display="none">
	<g display="inline">
		<g>
			<defs>
				<rect id="SVGID_1_" width="612" height="792"/>
			</defs>
			<clipPath id="SVGID_2_">
				<use xlink:href="#SVGID_1_"  overflow="visible"/>
			</clipPath>
			<path clip-path="url(#SVGID_2_)" d="M178.76,531.439c-0.194-0.791-0.15-1.631-0.044-2.068c0.27-1.252,1.122-2.652,3.605-2.652
				c2.304,0,3.659,1.436,3.659,3.58v2.438h9.821v-2.77c0-8.564-7.722-9.932-13.291-9.932c-6.993,0-12.706,2.32-13.752,8.752
				c-0.285,1.766-0.336,3.318,0.078,5.307c1.706,8.055,15.698,10.379,17.735,15.475c0.38,0.945,0.267,2.158,0.076,2.904
				c-0.323,1.322-1.211,2.66-3.846,2.66c-2.46,0-3.931-1.436-3.931-3.584l-0.012-3.789h-10.566v3.01
				c0,8.805,6.916,11.451,14.313,11.451c7.113,0,12.958-2.424,13.907-9.016c0.476-3.396,0.121-5.605-0.039-6.443
				C194.812,538.498,179.878,536.052,178.76,531.439 M306.806,531.535c-0.176-0.773-0.127-1.602-0.033-2.033
				c0.281-1.26,1.13-2.633,3.565-2.633c2.274,0,3.609,1.416,3.609,3.543v2.408h9.704v-2.746c0-8.482-7.604-9.812-13.108-9.812
				c-6.938,0-12.602,2.287-13.637,8.668c-0.272,1.736-0.341,3.279,0.098,5.248c1.682,7.959,15.54,10.268,17.55,15.299
				c0.358,0.955,0.257,2.174,0.075,2.889c-0.301,1.312-1.184,2.627-3.796,2.627c-2.451,0-3.925-1.406-3.925-3.529l-0.005-3.781
				h-10.448v3.006c0,8.703,6.818,11.328,14.159,11.328c7.034,0,12.842-2.4,13.774-8.916c0.442-3.363,0.106-5.559-0.069-6.383
				C322.692,538.55,307.924,536.095,306.806,531.535 M396.21,552.992l-9.274-31.703h-14.607v38.965h9.666l-0.562-32.715
				l9.958,32.715h14.012v-38.965h-9.728L396.21,552.992z M210.444,521.289l-7.294,39.375h10.637l5.495-36.447l5.365,36.447h10.563
				l-7.264-39.375H210.444z M269.916,521.289l-4.966,30.779l-4.967-30.779h-16.062l-0.852,39.375h9.842l0.263-36.447l6.774,36.447
				h9.981l6.779-36.447l0.268,36.447h9.865l-0.88-39.375H269.916z M361.411,521.289h-9.96v29.131c0.017,0.508,0,1.078-0.088,1.496
				c-0.208,0.979-1.037,2.859-3.783,2.859c-2.711,0-3.563-1.883-3.756-2.859c-0.102-0.418-0.111-0.988-0.102-1.496v-29.131h-9.956
				v28.225c-0.012,0.729,0.048,2.213,0.09,2.605c0.688,7.354,6.484,9.744,13.724,9.744c7.253,0,13.045-2.391,13.744-9.744
				c0.055-0.393,0.125-1.877,0.087-2.605V521.289L361.411,521.289z M429.78,538.564v5.74h4.034v5.697
				c0.013,0.51-0.017,1.059-0.104,1.5c-0.159,1.061-1.169,2.869-4.032,2.869c-2.848,0-3.842-1.811-4.012-2.869
				c-0.073-0.439-0.104-0.99-0.104-1.5v-17.994c0-0.639,0.044-1.334,0.182-1.859c0.191-0.961,1.044-2.854,3.911-2.854
				c3.013,0,3.766,1.996,3.935,2.854c0.117,0.564,0.122,1.518,0.122,1.518v2.186h9.915v-1.291c0,0,0.046-1.348-0.076-2.604
				c-0.741-7.387-6.827-9.723-13.807-9.723c-6.988,0-12.951,2.355-13.819,9.723c-0.08,0.674-0.198,1.885-0.198,2.604v16.555
				c0,0.723,0.021,1.275,0.155,2.6c0.646,7.182,6.874,9.729,13.835,9.729c7.007,0,13.188-2.547,13.847-9.729
				c0.116-1.322,0.129-1.877,0.146-2.6v-10.549L429.78,538.564L429.78,538.564z"/>
		</g>
	</g>
	<g display="inline">
		<g>
			<defs>
				<rect id="SVGID_3_" width="612" height="792"/>
			</defs>
			<clipPath id="SVGID_4_">
				<use xlink:href="#SVGID_3_"  overflow="visible"/>
			</clipPath>
			<rect x="221.631" y="604.404" clip-path="url(#SVGID_4_)" width="168.737" height="1.686"/>
		</g>
	</g>
</g>
<g>
	<rect x="271.381" y="0" width="1.438" height="71.909"/>
</g>
<path d="M9.609,27.697c-0.165-0.674-0.128-1.389-0.037-1.762c0.23-1.067,0.956-2.262,3.072-2.262c1.964,0,3.119,1.223,3.119,3.051
	V28.8h8.37v-2.357c0-7.301-6.581-8.465-11.328-8.465c-5.96,0-10.829,1.977-11.72,7.459c-0.244,1.504-0.287,2.83,0.066,4.522
	c1.454,6.863,13.379,8.847,15.116,13.188c0.324,0.808,0.227,1.84,0.064,2.476c-0.275,1.128-1.032,2.269-3.278,2.269
	c-2.096,0-3.35-1.223-3.35-3.056l-0.01-3.229H0.686v2.565c0,7.503,5.894,9.761,12.199,9.761c6.063,0,11.044-2.066,11.853-7.685
	c0.406-2.894,0.104-4.778-0.033-5.492C23.29,33.714,10.561,31.628,9.609,27.697 M118.746,27.779c-0.15-0.66-0.108-1.364-0.031-1.732
	c0.242-1.074,0.964-2.244,3.041-2.244c1.939,0,3.077,1.206,3.077,3.02v2.053h8.271v-2.34c0-7.23-6.482-8.365-11.174-8.365
	c-5.913,0-10.74,1.949-11.623,7.389c-0.231,1.48-0.289,2.795,0.084,4.474c1.434,6.782,13.245,8.749,14.959,13.04
	c0.305,0.812,0.219,1.85,0.063,2.46c-0.256,1.116-1.008,2.239-3.235,2.239c-2.089,0-3.345-1.199-3.345-3.01l-0.004-3.222h-8.905
	v2.562c0,7.418,5.811,9.655,12.068,9.655c5.995,0,10.945-2.048,11.741-7.6c0.378-2.868,0.091-4.737-0.06-5.441
	C132.286,33.758,119.699,31.666,118.746,27.779 M194.947,46.068l-7.905-27.021H174.59v33.209h8.238l-0.478-27.882l8.488,27.882
	h11.941V19.046h-8.29L194.947,46.068z M36.614,19.046l-6.216,33.561h9.066l4.683-31.065l4.573,31.065h9.002l-6.191-33.561H36.614z
	 M87.303,19.046L83.07,45.279l-4.232-26.232H65.146L64.42,52.607h8.388l0.225-31.065l5.773,31.065h8.508l5.777-31.065l0.228,31.065
	h8.409l-0.75-33.561H87.303z M165.287,19.046h-8.489v24.828c0.014,0.432,0,0.92-0.075,1.275c-0.177,0.834-0.884,2.437-3.225,2.437
	c-2.311,0-3.036-1.603-3.2-2.437c-0.085-0.355-0.096-0.844-0.085-1.275V19.046h-8.486v24.057c-0.01,0.619,0.039,1.885,0.075,2.219
	c0.587,6.269,5.528,8.304,11.696,8.304c6.182,0,11.119-2.035,11.715-8.304c0.046-0.334,0.107-1.6,0.074-2.219V19.046z
	 M223.56,33.771v4.894h3.438v4.856c0.01,0.435-0.013,0.9-0.088,1.276c-0.135,0.904-0.996,2.448-3.436,2.448
	c-2.428,0-3.274-1.544-3.42-2.448c-0.062-0.376-0.088-0.842-0.088-1.276V28.183c0-0.545,0.036-1.137,0.153-1.586
	c0.166-0.818,0.89-2.431,3.334-2.431c2.567,0,3.21,1.701,3.354,2.431c0.099,0.483,0.103,1.293,0.103,1.293v1.863h8.452v-1.102
	c0,0,0.038-1.148-0.065-2.219c-0.632-6.297-5.82-8.287-11.769-8.287c-5.956,0-11.038,2.008-11.778,8.287
	c-0.068,0.573-0.169,1.604-0.169,2.219v14.109c0,0.615,0.018,1.09,0.133,2.215c0.55,6.121,5.858,8.291,11.791,8.291
	c5.972,0,11.242-2.17,11.802-8.291c0.099-1.125,0.109-1.6,0.124-2.215v-8.99H223.56z"/>
<g>
	<path fill="#1C1C1B" d="M313.524,49.217h2.218l4.21,11.818h-2.3l-0.729-2.104h-4.581l-0.729,2.104h-2.299L313.524,49.217z
		 M313.087,56.827h3.108l-1.556-4.484L313.087,56.827z"/>
	<path fill="#1C1C1B" d="M320.743,51.566h2.169v1.166c0.632-0.826,1.603-1.36,2.833-1.36c2.38,0,3.756,1.474,3.756,4.047v5.618
		h-2.218v-5.391c0-1.474-0.712-2.381-2.137-2.381c-1.247,0-2.22,0.907-2.22,2.574v5.197h-2.186L320.743,51.566L320.743,51.566z
		 M322.815,50.578c0-1.312,0.631-2.186,1.684-2.186c0.534,0,0.906,0.193,1.246,0.389c0.308,0.21,0.566,0.404,0.842,0.404
		c0.31,0,0.453-0.242,0.453-0.729h1.264c0,1.344-0.551,2.186-1.698,2.186c-0.634,0-1.036-0.291-1.408-0.502
		c-0.243-0.146-0.454-0.274-0.696-0.274c-0.275,0-0.421,0.243-0.421,0.712H322.815z"/>
	<path fill="#1C1C1B" d="M330.438,56.308c0-2.768,2.169-4.938,4.903-4.938c2.722,0,4.905,2.169,4.905,4.938
		c0,2.721-2.186,4.922-4.905,4.922C332.607,61.23,330.438,59.029,330.438,56.308z M338.096,56.308c0-1.603-1.196-2.881-2.752-2.881
		c-1.568,0-2.753,1.279-2.753,2.881c0,1.571,1.185,2.866,2.753,2.866C336.897,59.174,338.096,57.879,338.096,56.308z"/>
	<path fill="#1C1C1B" d="M340.555,58.931l2.024-0.972c0.453,0.892,1.246,1.376,2.282,1.376c1.085,0,1.619-0.518,1.619-1.15
		c0-0.695-1.055-0.824-2.22-1.084c-1.618-0.34-3.317-0.857-3.317-2.849c0-1.522,1.474-2.897,3.724-2.897
		c1.927,0,3.141,0.744,3.869,1.957l-1.861,0.939c-0.389-0.664-1.101-1.085-2.008-1.085c-1.036,0-1.521,0.485-1.521,1.021
		c0,0.631,0.743,0.793,2.169,1.101c1.555,0.308,3.335,0.858,3.335,2.849c0,1.328-1.184,3.092-3.887,3.092
		C342.644,61.23,341.316,60.42,340.555,58.931z"/>
</g>
<g>
	<path fill="#1C1C1B" d="M367.502,13.914h-5.091v-3.395h13.759v3.395h-5.117v15.665h-3.551V13.914z"/>
	<path fill="#1C1C1B" d="M374.267,21.98c0-4.465,3.474-7.988,7.938-7.988c4.543,0,7.858,3.342,7.858,7.857v1.332h-12.43
		c0.496,2.168,2.193,3.604,4.7,3.604c1.983,0,3.498-1.045,4.229-2.689l2.896,1.672c-1.331,2.479-3.681,4.125-7.127,4.125
		C377.529,29.892,374.267,26.392,374.267,21.98z M377.817,20.23h8.667c-0.521-2.062-2.088-3.133-4.281-3.133
		C380.088,17.099,378.443,18.351,377.817,20.23z"/>
	<path fill="#1C1C1B" d="M391.135,21.955c0-4.464,3.474-7.963,7.938-7.963c3.42,0,6.107,1.958,7.284,4.726l-3.159,1.332
		c-0.705-1.671-2.219-2.741-4.101-2.741c-2.585,0-4.517,2.062-4.517,4.647c0,2.532,1.932,4.621,4.542,4.621
		c1.984,0,3.421-1.175,4.125-2.847l3.159,1.357c-1.2,2.82-3.785,4.805-7.336,4.805C394.606,29.892,391.135,26.34,391.135,21.955z"/>
	<path fill="#1C1C1B" d="M407.741,14.304h3.498v1.881c1.019-1.332,2.585-2.193,4.567-2.193c3.84,0,6.059,2.376,6.059,6.527v9.06
		h-3.577v-8.694c0-2.376-1.148-3.838-3.446-3.838c-2.01,0-3.576,1.462-3.576,4.15v8.381h-3.522L407.741,14.304L407.741,14.304z"/>
	<path fill="#1C1C1B" d="M423.408,21.955c0-4.464,3.498-7.963,7.91-7.963c4.387,0,7.911,3.498,7.911,7.963
		c0,4.386-3.524,7.938-7.911,7.938C426.906,29.892,423.408,26.34,423.408,21.955z M435.757,21.955c0-2.584-1.932-4.646-4.438-4.646
		c-2.532,0-4.438,2.062-4.438,4.646c0,2.533,1.906,4.621,4.438,4.621C433.825,26.576,435.757,24.486,435.757,21.955z"/>
	<path fill="#1C1C1B" d="M440.772,10.257h3.551v19.32h-3.551V10.257z"/>
	<path fill="#1C1C1B" d="M445.864,21.955c0-4.464,3.498-7.963,7.91-7.963c4.387,0,7.909,3.498,7.909,7.963
		c0,4.386-3.522,7.938-7.909,7.938C449.362,29.892,445.864,26.34,445.864,21.955z M458.213,21.955c0-2.584-1.932-4.646-4.438-4.646
		c-2.532,0-4.438,2.062-4.438,4.646c0,2.533,1.906,4.621,4.438,4.621C456.281,26.576,458.213,24.486,458.213,21.955z"/>
	<path fill="#1C1C1B" d="M475.342,27.542c-1.122,1.462-2.924,2.351-4.984,2.351c-3.683,0-7.521-2.925-7.521-7.938
		c0-5.064,3.707-7.963,7.571-7.963c2.01,0,3.785,0.888,4.908,2.271v-1.959h3.522v14.881c0,4.282-2.741,7.78-7.885,7.78
		c-3.969,0-6.448-1.854-7.832-4.386l3.133-1.906c1.122,2.062,2.323,3.055,4.752,3.055c2.662,0,4.333-2.088,4.333-4.412
		L475.342,27.542L475.342,27.542z M475.499,21.902c0-2.611-1.932-4.699-4.569-4.699c-2.608,0-4.621,2.062-4.621,4.699
		c0,2.662,2.013,4.75,4.621,4.75C473.567,26.654,475.499,24.54,475.499,21.902z"/>
	<path fill="#1C1C1B" d="M480.905,14.304h3.551v15.273h-3.551V14.304z M484.325,8.562h3.289L483.698,13h-2.376L484.325,8.562z"/>
	<path fill="#1C1C1B" d="M485.997,21.955c0-5.064,3.707-7.963,7.571-7.963c2.01,0,3.784,0.81,4.906,2.141v-1.828h3.524v15.273
		h-3.524v-1.984c-1.122,1.436-2.948,2.299-4.961,2.299C489.835,29.892,485.997,26.966,485.997,21.955z M498.659,21.902
		c0-2.611-1.932-4.699-4.569-4.699c-2.608,0-4.621,2.062-4.621,4.699c0,2.662,2.013,4.75,4.621,4.75
		C496.728,26.654,498.659,24.54,498.659,21.902z"/>
</g>
<g>
	<path fill="#1C1C1B" d="M362.255,53.289c0-4.464,3.474-7.963,7.938-7.963c3.42,0,6.107,1.958,7.282,4.727l-3.157,1.331
		c-0.705-1.671-2.221-2.741-4.101-2.741c-2.585,0-4.517,2.062-4.517,4.647c0,2.532,1.932,4.621,4.542,4.621
		c1.984,0,3.421-1.175,4.125-2.847l3.159,1.357c-1.2,2.82-3.785,4.805-7.336,4.805C365.728,61.226,362.255,57.674,362.255,53.289z"
		/>
	<path fill="#1C1C1B" d="M378.261,53.289c0-4.464,3.498-7.963,7.91-7.963c4.387,0,7.911,3.499,7.911,7.963
		c0,4.386-3.524,7.938-7.911,7.938C381.759,61.226,378.261,57.674,378.261,53.289z M390.609,53.289c0-2.584-1.934-4.646-4.438-4.646
		c-2.532,0-4.438,2.062-4.438,4.646c0,2.533,1.904,4.621,4.438,4.621C388.678,57.91,390.609,55.822,390.609,53.289z"/>
	<path fill="#1C1C1B" d="M395.625,45.64h3.498v1.879c1.019-1.332,2.585-2.192,4.569-2.192c3.838,0,6.057,2.376,6.057,6.526v9.061
		h-3.577V52.22c0-2.377-1.146-3.839-3.446-3.839c-2.01,0-3.574,1.462-3.574,4.151v8.38h-3.524L395.625,45.64L395.625,45.64z"/>
	<path fill="#1C1C1B" d="M418.264,41.853h6.526c3.942,0,6.867,3.028,6.867,6.789c0,3.785-2.925,6.813-6.895,6.813h-2.948v5.457
		h-3.553L418.264,41.853L418.264,41.853z M421.814,45.144v7.022h2.715c2.089,0,3.551-1.565,3.551-3.524
		c0-1.957-1.462-3.498-3.551-3.498H421.814L421.814,45.144z"/>
	<path fill="#1C1C1B" d="M433.356,45.64h3.498v2.271c0.703-1.515,2.011-2.271,3.916-2.271c1.121,0,1.982,0.26,2.688,0.652
		l-1.332,3.342c-0.521-0.34-1.096-0.601-2.114-0.601c-2.062,0-3.133,1.096-3.133,3.733v8.146h-3.522V45.64L433.356,45.64z"/>
	<path fill="#1C1C1B" d="M443.618,53.289c0-4.464,3.498-7.963,7.91-7.963c4.387,0,7.911,3.499,7.911,7.963
		c0,4.386-3.524,7.938-7.911,7.938C447.116,61.226,443.618,57.674,443.618,53.289z M455.967,53.289c0-2.584-1.932-4.646-4.438-4.646
		c-2.532,0-4.438,2.062-4.438,4.646c0,2.533,1.906,4.621,4.438,4.621C454.035,57.91,455.967,55.822,455.967,53.289z"/>
	<path fill="#1C1C1B" d="M464.48,59.111v8.824h-3.498V45.638h3.498v2.036c1.068-1.437,2.872-2.35,4.961-2.35
		c3.838,0,7.519,2.897,7.519,7.963c0,5.013-3.812,7.937-7.493,7.937C467.379,61.226,465.551,60.468,464.48,59.111z M473.487,53.236
		c0-2.637-2.01-4.698-4.597-4.698c-2.637,0-4.543,2.088-4.543,4.698c0,2.638,1.906,4.752,4.543,4.752
		C471.478,57.988,473.487,55.9,473.487,53.236z"/>
	<path fill="#1C1C1B" d="M478.034,53.289c0-4.464,3.498-7.963,7.91-7.963c4.387,0,7.911,3.499,7.911,7.963
		c0,4.386-3.524,7.938-7.911,7.938C481.532,61.226,478.034,57.674,478.034,53.289z M490.383,53.289c0-2.584-1.932-4.646-4.438-4.646
		c-2.532,0-4.438,2.062-4.438,4.646c0,2.533,1.906,4.621,4.438,4.621C488.451,57.91,490.383,55.822,490.383,53.289z M487.746,39.634
		h3.289l-3.916,4.438h-2.376L487.746,39.634z"/>
	<path fill="#1C1C1B" d="M494.353,57.519l3.265-1.566c0.729,1.436,2.011,2.219,3.682,2.219c1.749,0,2.61-0.835,2.61-1.854
		c0-1.123-1.697-1.332-3.577-1.75c-2.61-0.549-5.353-1.385-5.353-4.596c0-2.453,2.377-4.673,6.006-4.673
		c3.104,0,5.062,1.201,6.237,3.159l-3.002,1.516c-0.627-1.072-1.773-1.75-3.235-1.75c-1.673,0-2.454,0.782-2.454,1.645
		c0,1.018,1.2,1.279,3.498,1.775c2.507,0.496,5.378,1.383,5.378,4.594c0,2.142-1.905,4.988-6.268,4.988
		C497.722,61.226,495.581,59.919,494.353,57.519z"/>
	<path fill="#1C1C1B" d="M510.699,39.687c1.384,0,2.219,0.888,2.219,2.219c0,1.33-0.835,2.193-2.219,2.193
		c-1.438,0-2.22-0.861-2.22-2.193S509.341,39.687,510.699,39.687z M508.924,45.64h3.552v15.272h-3.552V45.64z"/>
	<path fill="#1C1C1B" d="M513.963,45.64h2.611v-2.324l3.551-2.428v4.752h3.106v3.158h-3.106v5.719c0,2.662,0.394,3.08,3.106,3.08
		v3.316h-0.496c-4.728,0-6.161-1.514-6.161-6.37v-5.744h-2.611V45.64L513.963,45.64z"/>
	<path fill="#1C1C1B" d="M523.938,53.289c0-4.464,3.497-7.963,7.908-7.963c4.389,0,7.911,3.499,7.911,7.963
		c0,4.386-3.522,7.938-7.911,7.938C527.435,61.226,523.938,57.674,523.938,53.289z M536.286,53.289c0-2.584-1.932-4.646-4.438-4.646
		c-2.53,0-4.438,2.062-4.438,4.646c0,2.533,1.906,4.621,4.438,4.621C534.354,57.91,536.286,55.822,536.286,53.289z"/>
</g>
<g>
	<path fill="#1C1C1B" d="M313.402,45.703V16.361h-4.331v-6.18h10.948v35.521H313.402z"/>
	<path fill="#1C1C1B" d="M325.714,34.607V21.566c0-6.764,4.915-11.873,12.067-11.873c7.349,0,12.066,5.305,12.066,11.826v13.088
		c0,6.959-4.429,11.582-12.066,11.582C330.045,46.189,325.714,41.419,325.714,34.607z M343.231,34.365V21.761
		c0-3.357-1.897-5.547-5.401-5.547c-3.552,0-5.498,2.434-5.498,5.547v12.555c0,3.113,1.849,5.304,5.401,5.304
		C341.285,39.62,343.231,37.284,343.231,34.365z"/>
</g>
</svg>
